<svg width="20" height="20" viewBox="0 0 20 20" fill="none" xmlns="http://www.w3.org/2000/svg">
<path d="M10.0143 0C15.5293 0 20 4.47073 20 9.98573C20 15.5007 15.5293 19.9715 10.0143 19.9715C4.49928 19.9715 0.0285469 15.5007 0.0285469 9.98573C0.0285469 4.47073 4.49928 0 10.0143 0ZM5.65318 13.6605C5.81203 13.9412 6.10435 14.099 6.40547 14.099C6.54947 14.099 6.69554 14.063 6.8297 13.9872L10.4392 11.9461C10.449 11.9406 10.4568 11.9328 10.4663 11.927C10.4919 11.9111 10.5159 11.8936 10.5395 11.8752C10.5614 11.8582 10.583 11.8415 10.6031 11.8227C10.6231 11.8039 10.641 11.7837 10.6592 11.7629C10.678 11.7417 10.6966 11.7205 10.7132 11.6975C10.7293 11.6751 10.7431 11.6512 10.7571 11.6274C10.7709 11.6037 10.7847 11.5804 10.7961 11.5556C10.808 11.5298 10.8173 11.5029 10.8268 11.4756C10.8358 11.4499 10.8446 11.4243 10.851 11.3979C10.8574 11.3715 10.8614 11.3442 10.8653 11.3168C10.8696 11.2869 10.8731 11.2574 10.8743 11.227C10.8746 11.2159 10.8776 11.2054 10.8776 11.1944V4.14406C10.8776 3.66734 10.491 3.28075 10.0143 3.28075C9.53738 3.28075 9.15096 3.66734 9.15096 4.14406V10.6909L5.97986 12.4841C5.56478 12.7188 5.41853 13.2456 5.65318 13.6605Z" fill="#BBBBC6"/>
</svg>
