<svg width="14" height="13" viewBox="0 0 14 13" fill="none" xmlns="http://www.w3.org/2000/svg">
<path d="M13.0927 2.17785L8.81659 6.45394L13.0927 10.73C13.5225 11.1598 13.5225 11.8542 13.0927 12.284C12.6629 12.7138 11.9686 12.7138 11.5387 12.284L6.48017 7.2254C6.05036 6.79558 6.05036 6.10127 6.48017 5.67146L11.5387 0.612894C11.9686 0.183081 12.6629 0.183081 13.0927 0.612894C13.5115 1.04271 13.5225 1.74804 13.0927 2.17785Z" fill="#1D242E"/>
<path d="M6.93497 2.17785L2.65888 6.45394L6.93496 10.73C7.36478 11.1598 7.36478 11.8542 6.93496 12.284C6.50515 12.7138 5.81084 12.7138 5.38103 12.284L0.32246 7.2254C-0.107353 6.79558 -0.107353 6.10127 0.32246 5.67146L5.38103 0.612894C5.81084 0.183081 6.50515 0.183081 6.93497 0.612894C7.35376 1.04271 7.36478 1.74804 6.93497 2.17785Z" fill="#1D242E"/>
</svg>
