<svg width="101" height="84" viewBox="0 0 101 84" fill="none" xmlns="http://www.w3.org/2000/svg">
<path d="M80.0479 18.971L87.8436 20.2832L94.7903 24.0396L91.6129 9.33569L80.0479 18.971Z" fill="white"/>
<path d="M86.5024 17.7735L82.9023 28.2346L86.8192 29.5825L90.4192 19.1214L86.5024 17.7735Z" fill="white"/>
<path d="M89.7993 5.55378C90.2109 5.34795 90.3911 4.84624 90.1853 4.43459L88.4485 0.884047C88.2427 0.472391 87.741 0.292291 87.3293 0.498119C86.9177 0.703948 86.7376 1.20565 86.9434 1.61731L88.6801 5.16785C88.8859 5.57951 89.3876 5.75961 89.7993 5.55378Z" fill="#EC680F"/>
<path d="M93.0277 5.36081C93.4651 5.51518 93.9411 5.28362 94.0955 4.84624L95.3819 1.1156C95.5363 0.678213 95.3047 0.202235 94.8673 0.0478636C94.4299 -0.106508 93.954 0.125049 93.7996 0.562435L92.5132 4.30594C92.3588 4.74332 92.5903 5.2193 93.0277 5.37367" fill="#E60065"/>
<path d="M95.4337 7.49632C95.6395 7.90798 96.1412 8.08808 96.5529 7.88225L100.103 6.14557C100.515 5.93975 100.695 5.43804 100.489 5.02638C100.283 4.61472 99.7818 4.43462 99.3701 4.64045L95.8196 6.37713C95.4079 6.58296 95.2278 7.08467 95.4337 7.49632Z" fill="white"/>
<path d="M95.6392 10.7253C95.4848 11.1627 95.7163 11.6386 96.1537 11.793L99.8844 13.0794C100.322 13.2338 100.798 13.0023 100.952 12.5649C101.107 12.1275 100.875 11.6515 100.438 11.4971L96.7069 10.2107C96.2695 10.0563 95.7935 10.2879 95.6392 10.7253Z" fill="#941D80"/>
<path d="M82.3384 6.14569C82.184 6.58307 82.4156 7.05905 82.853 7.21342L86.5836 8.49985C87.021 8.65422 87.497 8.42266 87.6513 7.98528C87.8057 7.54789 87.5742 7.07191 87.1368 6.91754L83.4061 5.63112C82.9688 5.47674 82.4928 5.7083 82.3384 6.14569Z" fill="#FFDB50"/>
<path d="M41.4931 70.467C39.8722 70.467 38.5601 71.7792 38.5601 73.4001C38.5601 75.021 39.8722 76.3332 41.4931 76.3332C43.114 76.3332 44.4262 75.021 44.4262 73.4001C44.4262 71.7792 43.114 70.467 41.4931 70.467Z" fill="white"/>
<path d="M82.2734 70.467C80.6525 70.467 79.3403 71.7792 79.3403 73.4001C79.3403 75.021 80.6525 76.3332 82.2734 76.3332C83.8943 76.3332 85.2064 75.021 85.2064 73.4001C85.2064 71.7792 83.8943 70.467 82.2734 70.467Z" fill="white"/>
<path d="M73.4101 70.467C71.7892 70.467 70.4771 71.7792 70.4771 73.4001C70.4771 75.021 71.7892 76.3332 73.4101 76.3332C75.031 76.3332 76.3432 75.021 76.3432 73.4001C76.3432 71.7792 75.031 70.467 73.4101 70.467Z" fill="white"/>
<path d="M77.8999 78.1338C76.279 78.1338 74.9668 79.4459 74.9668 81.0668C74.9668 82.6877 76.279 83.9999 77.8999 83.9999C79.5207 83.9999 80.8329 82.6877 80.8329 81.0668C80.8329 79.4459 79.5207 78.1338 77.8999 78.1338Z" fill="white"/>
<path d="M3.40321 50.849C2.55417 50.849 1.82092 50.5402 1.20343 49.9356C0.585946 49.331 0.290039 48.5977 0.290039 47.7358V29.8416C0.290039 28.9926 0.585947 28.2593 1.16484 27.6418C1.74373 27.0372 2.46412 26.7285 3.32603 26.7285C4.18794 26.7285 4.90832 27.0372 5.52581 27.6418C6.13043 28.2464 6.43916 28.9797 6.43916 29.8416V47.7358C6.43916 48.5849 6.14329 49.3181 5.5644 49.9356C4.97264 50.5402 4.25225 50.849 3.40321 50.849ZM41.6101 67.1223C40.761 67.1223 40.0278 66.8135 39.4103 66.2089C38.7928 65.6043 38.497 64.871 38.497 64.0091V41.3937C38.497 38.9624 38.2011 37.0971 37.6222 35.7849C37.0304 34.4856 36.0785 33.5465 34.7534 32.9805C33.4284 32.4145 31.5631 32.1315 29.1832 32.1315C27.4337 32.1315 25.6712 32.2344 23.9217 32.4402C22.1722 32.646 20.0496 32.9419 17.5796 33.3536C16.7692 33.4822 16.0617 33.3278 15.457 32.8776C14.8524 32.4273 14.4794 31.8227 14.3378 31.0509C14.2478 30.3305 14.4407 29.6615 14.9167 29.0569C15.3927 28.4523 16.0102 28.0792 16.7692 27.9377C21.1816 27.1273 25.414 26.7285 29.4534 26.7285C33.184 26.7285 36.1556 27.2302 38.3683 28.2078C40.5681 29.1984 42.1761 30.755 43.1667 32.8647C44.1572 34.9745 44.6461 37.8175 44.6461 41.368V63.9834C44.6461 64.8324 44.3502 65.5657 43.7713 66.1832C43.1796 66.7878 42.4591 67.0966 41.6101 67.0966V67.1223ZM94.5337 26.6899C95.3827 26.6899 96.1032 26.9986 96.695 27.6032C97.2739 28.2079 97.5697 28.9411 97.5697 29.803V48.6363C97.5697 61.0118 90.5072 67.1995 76.3694 67.1995C62.2315 67.1995 55.169 61.0118 55.169 48.6363V29.803C55.169 28.954 55.4649 28.2207 56.0438 27.6032C56.6227 26.9986 57.3431 26.6899 58.205 26.6899C59.0669 26.6899 59.7873 26.9986 60.4048 27.6032C61.0094 28.2079 61.3182 28.9411 61.3182 29.803V48.6363C61.3182 53.1774 62.566 56.5093 65.0617 58.6319C67.5574 60.7416 71.3266 61.8093 76.3694 61.8093C81.4122 61.8093 85.1814 60.7545 87.6771 58.6319C90.1728 56.5221 91.4206 53.1903 91.4206 48.6363V29.803C91.4206 28.954 91.7293 28.2207 92.334 27.6032C92.9386 26.9986 93.6718 26.6899 94.5337 26.6899ZM76.3694 54.2966C75.5203 54.2966 74.7871 53.9879 74.1696 53.3832C73.565 52.7786 73.2562 52.0454 73.2562 51.1834L73.3206 29.7902C73.3206 28.9411 73.6164 28.2078 74.1953 27.5904C74.7742 26.9857 75.4946 26.677 76.3565 26.677C77.2184 26.677 77.9388 26.9857 78.5563 27.5904C79.1609 28.195 79.4697 28.9283 79.4697 29.7902L79.4053 51.1834C79.4053 52.0325 79.1095 52.7658 78.5306 53.3832C77.9388 53.9879 77.2184 54.2966 76.3694 54.2966Z" fill="white"/>
</svg>
