<svg width="243" height="28" viewBox="0 0 243 28" fill="none" xmlns="http://www.w3.org/2000/svg">
<path d="M6.43555 19.1797C6.01562 19.5215 5.46875 19.7949 4.79492 20C4.13086 20.1953 3.38867 20.293 2.56836 20.293C1.74805 20.293 1.01562 20.1611 0.371094 19.8975V16.499C1.02539 16.6748 1.53809 16.7627 1.90918 16.7627C2.28027 16.7627 2.58301 16.6943 2.81738 16.5576C3.06152 16.4209 3.24219 16.2305 3.35938 15.9863C3.55469 15.5469 3.65234 15.0195 3.65234 14.4043V4.61914L1.52832 4.82422V1.44043C4.52637 1.02051 7.50977 0.810547 10.4785 0.810547C12.6758 0.810547 14.3213 1.08887 15.415 1.64551C15.9717 1.92871 16.4258 2.25586 16.7773 2.62695C17.1387 2.98828 17.417 3.44238 17.6123 3.98926C17.8076 4.53613 17.9395 5.09277 18.0078 5.65918C18.0762 6.21582 18.1104 6.87988 18.1104 7.65137V20H13.6133V7.63672C13.6133 5.38086 12.3779 4.25293 9.90723 4.25293C9.36035 4.25293 8.76465 4.26758 8.12012 4.29688V14.4043C8.12012 16.6699 7.55859 18.2617 6.43555 19.1797ZM27.207 0.810547C30.3809 0.810547 32.4805 1.4209 33.5059 2.6416C34.0527 3.2959 34.4043 4.01367 34.5605 4.79492C34.7363 5.625 34.8242 6.57715 34.8242 7.65137V16.5869H36.9922V20H21.875V16.5869H30.3564V7.63672C30.3564 5.38086 29.1162 4.25293 26.6357 4.25293C25.376 4.25293 24.0283 4.34082 22.5928 4.5166L21.875 4.60449V1.07422C23.3105 0.898438 25.0879 0.810547 27.207 0.810547ZM49.3408 20H40.7861L39.1895 1.10352H43.4668L44.2578 10.5664C44.375 10.5762 44.5215 10.5811 44.6973 10.5811C45.4688 10.5811 46.04 10.376 46.4111 9.96582C46.792 9.55566 47.0215 8.87207 47.0996 7.91504L47.6562 1.10352H51.9043L51.3623 7.87109C51.0596 11.709 49.0576 13.6279 45.3564 13.6279C45.1514 13.6279 44.873 13.6182 44.5215 13.5986L44.7705 16.5869H49.5459C51.1768 16.5869 52.4316 15.9521 53.3105 14.6826C54.1895 13.4131 54.7217 11.665 54.9072 9.43848L55.6104 1.10352H59.8877L59.1846 9.32129C59.0283 11.0986 58.7793 12.5244 58.4375 13.5986C57.0996 17.8662 54.0674 20 49.3408 20ZM74.8145 19.502V20H70.376V19.502C70.376 18.7109 70.5029 17.6221 70.7568 16.2354C71.0107 14.8389 71.3232 13.6279 71.6943 12.6025L74.624 4.5166H63.5645V1.10352H79.5166V3.79883L76.3379 12.4268C75.3223 15.1807 74.8145 17.5391 74.8145 19.502ZM67.7246 27.2217H63.5791V8.69141H67.7246V27.2217ZM87.2217 20H82.7539V1.10352H87.2217V20ZM96.6699 19.1797C96.25 19.5215 95.7031 19.7949 95.0293 20C94.3652 20.1953 93.623 20.293 92.8027 20.293C91.9824 20.293 91.25 20.1611 90.6055 19.8975V16.499C91.2598 16.6748 91.7725 16.7627 92.1436 16.7627C92.5146 16.7627 92.8174 16.6943 93.0518 16.5576C93.2959 16.4209 93.4766 16.2305 93.5938 15.9863C93.7891 15.5469 93.8867 15.0195 93.8867 14.4043V4.61914L91.7627 4.82422V1.44043C94.7607 1.02051 97.7441 0.810547 100.713 0.810547C102.91 0.810547 104.556 1.08887 105.649 1.64551C106.206 1.92871 106.66 2.25586 107.012 2.62695C107.373 2.98828 107.651 3.44238 107.847 3.98926C108.042 4.53613 108.174 5.09277 108.242 5.65918C108.311 6.21582 108.345 6.87988 108.345 7.65137V20H103.848V7.63672C103.848 5.38086 102.612 4.25293 100.142 4.25293C99.5947 4.25293 98.999 4.26758 98.3545 4.29688V14.4043C98.3545 16.6699 97.793 18.2617 96.6699 19.1797ZM113.267 6.66992C113.267 4.92188 112.91 3.06152 112.197 1.08887H116.475C116.621 1.46973 116.768 1.91406 116.914 2.42188L117.31 3.98926H117.588C117.627 3.90137 117.686 3.78906 117.764 3.65234C117.842 3.50586 118.037 3.25195 118.35 2.89062C118.672 2.51953 119.028 2.19727 119.419 1.92383C119.81 1.64063 120.342 1.38672 121.016 1.16211C121.699 0.927734 122.461 0.810547 123.301 0.810547C124.15 0.810547 124.922 0.97168 125.615 1.29395C126.309 1.61621 126.865 2.04102 127.285 2.56836C127.715 3.0957 128.066 3.73535 128.34 4.4873C128.818 5.80566 129.058 7.41211 129.058 9.30664V20H120.972V16.5869H124.487V9.81934C124.487 8.08105 124.326 6.85547 124.004 6.14258C123.857 5.82031 123.672 5.51758 123.447 5.23438C122.998 4.64844 122.285 4.35547 121.309 4.35547C120.859 4.35547 120.42 4.46289 119.99 4.67773C119.57 4.88281 119.219 5.13672 118.936 5.43945C118.359 6.05469 117.959 6.60156 117.734 7.08008L117.588 7.40234L116.475 20H112.109L113.208 8.00293C113.247 7.55371 113.267 7.10938 113.267 6.66992ZM136.938 1.01562C138.413 0.878906 139.756 0.810547 140.967 0.810547C142.178 0.810547 143.193 0.878906 144.014 1.01562C144.834 1.15234 145.522 1.3623 146.079 1.64551C146.636 1.92871 147.09 2.25586 147.441 2.62695C147.803 2.98828 148.081 3.44238 148.276 3.98926C148.472 4.53613 148.604 5.09277 148.672 5.65918C148.74 6.21582 148.774 6.87988 148.774 7.65137V20H144.292V7.63672C144.292 5.38086 143.052 4.25293 140.571 4.25293C139.692 4.25293 138.677 4.30176 137.524 4.39941C136.372 4.4873 135.439 4.58008 134.727 4.67773L133.672 4.82422V1.44043C134.385 1.28418 135.474 1.14258 136.938 1.01562ZM138.154 20H133.672V7.94434H138.154V20ZM164.448 1.01562C165.923 0.878906 167.266 0.810547 168.477 0.810547C169.688 0.810547 170.703 0.878906 171.523 1.01562C172.344 1.15234 173.032 1.3623 173.589 1.64551C174.146 1.92871 174.6 2.25586 174.951 2.62695C175.312 2.98828 175.591 3.44238 175.786 3.98926C175.981 4.53613 176.113 5.09277 176.182 5.65918C176.25 6.21582 176.284 6.87988 176.284 7.65137V20H171.802V7.63672C171.802 5.38086 170.562 4.25293 168.081 4.25293C167.202 4.25293 166.187 4.30176 165.034 4.39941C163.882 4.4873 162.949 4.58008 162.236 4.67773L161.182 4.82422V1.44043C161.895 1.28418 162.983 1.14258 164.448 1.01562ZM165.664 20H161.182V7.94434H165.664V20ZM180.708 13.6133V1.10352H185.176V9.83398L182.202 13.6133H180.708ZM194.038 20H189.57V1.10352H194.038V20ZM203.208 20H198.74V1.10352H203.208V20ZM207.91 20V1.44043C208.623 1.28418 209.712 1.14258 211.177 1.01562C212.651 0.878906 213.994 0.810547 215.205 0.810547C216.416 0.810547 217.432 0.878906 218.252 1.01562C219.072 1.15234 219.761 1.3623 220.317 1.64551C220.874 1.92871 221.328 2.25586 221.68 2.62695C222.041 2.98828 222.319 3.44238 222.515 3.98926C222.71 4.53613 222.842 5.09277 222.91 5.65918C222.979 6.21582 223.013 6.87988 223.013 7.65137V20H218.53V7.63672C218.53 5.38086 217.29 4.25293 214.81 4.25293C214.136 4.25293 213.33 4.28711 212.393 4.35547V20H207.91ZM230.894 1.01562C232.368 0.878906 233.711 0.810547 234.922 0.810547C236.133 0.810547 237.148 0.878906 237.969 1.01562C238.789 1.15234 239.478 1.3623 240.034 1.64551C240.591 1.92871 241.045 2.25586 241.396 2.62695C241.758 2.98828 242.036 3.44238 242.231 3.98926C242.427 4.53613 242.559 5.09277 242.627 5.65918C242.695 6.21582 242.729 6.87988 242.729 7.65137V20H238.247V7.63672C238.247 5.38086 237.007 4.25293 234.526 4.25293C233.647 4.25293 232.632 4.30176 231.479 4.39941C230.327 4.4873 229.395 4.58008 228.682 4.67773L227.627 4.82422V1.44043C228.34 1.28418 229.429 1.14258 230.894 1.01562ZM232.109 20H227.627V7.94434H232.109V20Z" fill="white"/>
</svg>
