<svg width="18" height="17" viewBox="0 0 18 17" fill="none" xmlns="http://www.w3.org/2000/svg">
<path d="M3.87442 16.9796H3.87476C5.29676 16.9793 7.88468 16.0854 12.1374 11.8279C14.6656 9.29733 16.2903 7.10093 16.9672 5.29961C17.6994 3.35175 17.1228 2.37391 16.7142 1.96489L15.264 0.513088C14.9427 0.191788 14.5162 0.0146484 14.0628 0.0146484C13.534 0.0146484 13.0446 0.254008 12.7202 0.671188L10.9535 2.94375C10.4712 3.56357 10.4746 4.42751 10.9613 5.04393L11.36 5.54917C11.681 5.95615 11.647 6.53925 11.2809 6.90543L7.22072 10.9701C6.86378 11.3271 6.26231 11.3632 5.86596 11.0497L5.36129 10.6505C4.76695 10.1806 3.86049 10.1772 3.2631 10.6427L0.993401 12.4114C0.608608 12.7109 0.370871 13.1621 0.340645 13.6487C0.310419 14.1359 0.490759 14.6129 0.835136 14.958L2.28533 16.4095C2.5448 16.6695 3.03148 16.9796 3.87442 16.9796ZM14.0628 0.694649C14.3348 0.694649 14.5909 0.801069 14.7838 0.993849L16.2336 2.44565C16.74 2.95259 16.7746 3.88113 16.3318 5.05991C15.6889 6.77011 14.1161 8.88559 11.6572 11.3472C7.35351 15.656 4.9337 16.2993 3.87476 16.2996H3.87442C3.26412 16.2996 2.93434 16.098 2.76555 15.9287L1.3157 14.4772C1.10887 14.2702 1.00053 13.9836 1.01853 13.6912C1.03687 13.3988 1.17951 13.1281 1.41046 12.9479L3.68015 11.1792C4.04185 10.8977 4.58083 10.8994 4.93981 11.184L5.44483 11.5831C5.7437 11.8195 6.11763 11.9497 6.49834 11.9497C6.95276 11.9497 7.37966 11.7725 7.70061 11.4509L11.7611 7.38619C12.3708 6.77623 12.4275 5.80519 11.8929 5.12791L11.4942 4.62267C11.2021 4.25207 11.2001 3.73357 11.4894 3.36127L13.2565 1.08905C13.4511 0.838469 13.7452 0.694649 14.0628 0.694649Z" fill="#C6CEE6"/>
</svg>
