<svg width="19" height="19" viewBox="0 0 19 19" fill="none" xmlns="http://www.w3.org/2000/svg">
<path d="M14.9845 15.771C14.9845 16.6356 14.2814 17.3387 13.4168 17.3387H5.57829C4.7137 17.3387 4.01058 16.6356 4.01058 15.771V6.36475H2.44287V4.79704H5.57829V3.22933C5.57829 2.36474 6.2814 1.66162 7.146 1.66162H11.8491C12.7137 1.66162 13.4168 2.36474 13.4168 3.22933V4.79704H16.5522V6.36475H14.9845V15.771ZM11.8491 3.22933H7.146V4.79704H11.8491V3.22933ZM12.633 6.36475H5.57829L5.5775 15.771H13.4168V6.36475H12.633Z" fill="#1C2A3A"/>
<path d="M11.8491 7.93262H10.2814V14.2035H11.8491V7.93262ZM8.7137 7.93262H7.14599V14.2035H8.7137V7.93262Z" fill="#1C2A3A"/>
</svg>
