<svg width="25" height="25" viewBox="0 0 25 25" fill="none" xmlns="http://www.w3.org/2000/svg">
<path d="M11.7083 0V3.66125C7.61208 4.24729 4.45833 7.76354 4.45833 12.0229C4.45833 13.1044 4.66979 14.1375 5.03833 15.086L1.89667 16.9408C1.22604 15.4365 0.833332 13.781 0.833332 12.0229C0.833332 5.75771 5.60021 0.610208 11.7083 0ZM12.9167 20.4813C17.5869 20.4813 21.375 16.6931 21.375 12.0229C21.375 7.76354 18.2213 4.24729 14.125 3.66125V0C20.2392 0.604167 25 5.75771 25 12.0229C25 18.699 19.5988 24.1063 12.9227 24.1063C8.92312 24.1063 5.38875 22.1548 3.18958 19.1642L6.32521 17.3154C7.87187 19.2427 10.2462 20.4813 12.9167 20.4813Z" fill="white" fill-opacity="0.5"/>
</svg>
