<svg width="30" height="35" viewBox="0 0 30 35" fill="none" xmlns="http://www.w3.org/2000/svg">
<path d="M30 28.3333V30H0V28.3333L3.33333 25V15C3.33333 9.83333 6.71667 5.28333 11.6667 3.81667V3.33333C11.6667 2.44928 12.0179 1.60143 12.643 0.976311C13.2681 0.351189 14.1159 0 15 0C15.8841 0 16.7319 0.351189 17.357 0.976311C17.9821 1.60143 18.3333 2.44928 18.3333 3.33333V3.81667C23.2833 5.28333 26.6667 9.83333 26.6667 15V25L30 28.3333ZM18.3333 31.6667C18.3333 32.5507 17.9821 33.3986 17.357 34.0237C16.7319 34.6488 15.8841 35 15 35C14.1159 35 13.2681 34.6488 12.643 34.0237C12.0179 33.3986 11.6667 32.5507 11.6667 31.6667" fill="white"/>
</svg>
