<svg width="27" height="35" viewBox="0 0 27 35" fill="none" xmlns="http://www.w3.org/2000/svg">
<path d="M0.934079 0.316284H19.5874C19.8146 0.40843 20.0079 0.568368 20.1409 0.774315C20.2739 0.980261 20.3402 1.2222 20.3307 1.46718C20.3225 10.1512 20.3225 18.8312 20.3307 27.5071C20.3491 27.6612 20.3321 27.8176 20.2812 27.9642C20.2302 28.1108 20.1466 28.244 20.0366 28.3535C19.9266 28.4631 19.7932 28.5462 19.6463 28.5965C19.4995 28.6469 19.3431 28.6632 19.189 28.6442H1.47354C0.543327 28.6442 0.195431 28.2933 0.195431 27.3722C0.195431 18.7903 0.192395 10.211 0.186265 1.63422C0.153565 1.36344 0.208518 1.08932 0.343123 0.852101C0.477729 0.614886 0.684856 0.427086 0.934079 0.316284ZM10.2684 11.459C12.2464 11.459 14.2248 11.459 16.2038 11.459C16.4172 11.4773 16.6309 11.428 16.8147 11.3179C16.9984 11.2079 17.1429 11.0428 17.2275 10.846C17.2957 10.6887 17.3224 10.5166 17.3051 10.346C17.2878 10.1755 17.227 10.0122 17.1286 9.87188C17.0302 9.73152 16.8975 9.61874 16.7431 9.54432C16.5887 9.4699 16.4177 9.43633 16.2466 9.44681C14.2238 9.44681 12.2009 9.44681 10.178 9.44681C8.22258 9.44681 6.26661 9.44681 4.31014 9.44681C4.10793 9.43248 3.90609 9.47914 3.73069 9.58077C3.55529 9.68241 3.41441 9.83434 3.32629 10.0169C3.24777 10.1756 3.2127 10.3523 3.22466 10.529C3.23663 10.7057 3.29519 10.876 3.39438 11.0227C3.49358 11.1694 3.62987 11.2872 3.78938 11.3641C3.94889 11.441 4.12593 11.4742 4.30247 11.4605C6.2901 11.462 8.27927 11.4528 10.2684 11.4528V11.459ZM10.2393 19.5137C12.2285 19.5137 14.2182 19.5137 16.2083 19.5137C16.347 19.5258 16.4867 19.5091 16.6186 19.4647C16.7505 19.4203 16.8718 19.3491 16.9749 19.2555C17.078 19.162 17.1606 19.0482 17.2176 18.9212C17.2746 18.7942 17.3047 18.6568 17.3061 18.5176C17.3075 18.3784 17.2801 18.2404 17.2256 18.1124C17.1712 17.9843 17.0908 17.8688 16.9895 17.7733C16.8883 17.6777 16.7685 17.6041 16.6375 17.5571C16.5065 17.5101 16.3671 17.4906 16.2283 17.5C13.5127 17.5 10.7966 17.5 8.08003 17.5C6.81727 17.5 5.55453 17.5 4.29176 17.5C4.15407 17.4894 4.01568 17.5072 3.88516 17.5523C3.75464 17.5974 3.63478 17.6689 3.533 17.7622C3.43122 17.8555 3.34968 17.9688 3.29346 18.0949C3.23724 18.221 3.20751 18.3573 3.20614 18.4954C3.20478 18.6335 3.2318 18.7704 3.28551 18.8976C3.33922 19.0248 3.4185 19.1397 3.51841 19.235C3.61832 19.3303 3.73676 19.4041 3.86636 19.4518C3.99596 19.4995 4.13397 19.52 4.27184 19.5121C6.26713 19.5183 8.25631 19.5137 10.2393 19.5137ZM10.2577 15.4863C12.2607 15.4863 14.2636 15.4863 16.265 15.4863C16.4002 15.4916 16.5352 15.4695 16.6617 15.4214C16.7881 15.3733 16.9036 15.3002 17.0011 15.2064C17.0987 15.1126 17.1763 15 17.2293 14.8755C17.2823 14.751 17.3096 14.6171 17.3096 14.4818C17.3096 14.3465 17.2823 14.2125 17.2293 14.088C17.1763 13.9635 17.0987 13.851 17.0011 13.7572C16.9036 13.6634 16.7881 13.5902 16.6617 13.5421C16.5352 13.494 16.4002 13.4719 16.265 13.4772C12.2601 13.4772 8.25526 13.4772 4.25037 13.4772C4.03954 13.4847 3.83425 13.5465 3.65427 13.6565C3.47714 13.7672 3.34145 13.9332 3.2683 14.1288C3.19515 14.3244 3.18861 14.5387 3.24968 14.7385C3.31073 14.9619 3.44658 15.1576 3.63458 15.2929C3.82258 15.4282 4.0513 15.4948 4.28255 15.4817C6.27886 15.4868 8.27264 15.4884 10.2638 15.4863H10.2577ZM7.23415 7.43159C8.21647 7.43159 9.20029 7.43159 10.1826 7.43159C10.3205 7.44004 10.4586 7.42007 10.5885 7.37292C10.7183 7.32577 10.8371 7.25245 10.9374 7.1575C11.0377 7.06255 11.1175 6.948 11.1717 6.82096C11.2259 6.69392 11.2534 6.5571 11.2526 6.41897C11.2518 6.28084 11.2226 6.14435 11.1668 6.01798C11.111 5.89161 11.0299 5.77805 10.9284 5.68433C10.8269 5.59061 10.7073 5.51874 10.5769 5.47317C10.4465 5.42761 10.3081 5.40933 10.1704 5.41945C8.21593 5.41945 6.26153 5.41945 4.3071 5.41945C4.16755 5.40815 4.02714 5.42598 3.89484 5.47183C3.76255 5.51768 3.64125 5.59053 3.53861 5.68577C3.43598 5.781 3.35425 5.89654 3.29865 6.02504C3.24305 6.15355 3.21478 6.29219 3.21564 6.4322C3.21649 6.57221 3.24645 6.71052 3.30361 6.83833C3.36077 6.96615 3.4439 7.08068 3.54769 7.17466C3.65147 7.26864 3.77365 7.34001 3.90649 7.38424C4.03933 7.42847 4.17995 7.4446 4.31935 7.43159C5.29708 7.43312 6.26868 7.43159 7.24027 7.43159H7.23415ZM14.2835 21.5304C13.6475 21.5304 13.01 21.5304 12.374 21.5304C12.2346 21.5174 12.0941 21.5335 11.9612 21.5778C11.8284 21.622 11.7062 21.6934 11.6024 21.7874C11.4986 21.8813 11.4155 21.9959 11.3583 22.1237C11.3012 22.2515 11.2712 22.3898 11.2704 22.5298C11.2695 22.6698 11.2978 22.8085 11.3534 22.937C11.409 23.0655 11.4907 23.181 11.5934 23.2763C11.696 23.3715 11.8173 23.4443 11.9496 23.4902C12.0819 23.536 12.2222 23.5539 12.3618 23.5426C13.646 23.5426 14.9297 23.5426 16.2129 23.5426C16.3507 23.5527 16.4891 23.5344 16.6195 23.4888C16.7499 23.4433 16.8695 23.3714 16.971 23.2777C17.0725 23.184 17.1536 23.0704 17.2094 22.944C17.2651 22.8177 17.2943 22.6812 17.2952 22.5431C17.296 22.4049 17.2685 22.2681 17.2143 22.1411C17.16 22.014 17.0803 21.8995 16.98 21.8045C16.8796 21.7096 16.7609 21.6362 16.631 21.5891C16.5012 21.5419 16.363 21.522 16.2252 21.5304C15.5846 21.5258 14.9379 21.5289 14.2896 21.5289L14.2835 21.5304Z" fill="white"/>
<path d="M22.3478 6.42931C23.4129 6.42931 24.4396 6.4094 25.4664 6.43698C25.722 6.45356 25.9608 6.57042 26.1307 6.76214C26.3006 6.95385 26.3879 7.20491 26.3736 7.46068C26.3813 8.34492 26.3736 9.22763 26.3736 10.1119C26.3736 17.8867 26.3736 25.6614 26.3736 33.4362C26.3736 34.3189 26.0135 34.6837 25.1385 34.6837H7.48734C6.5939 34.6837 6.23682 34.3236 6.23682 33.4179C6.23682 32.5122 6.23682 31.608 6.23682 30.6594H19.125C19.5566 30.6859 19.989 30.62 20.3931 30.4661C20.7972 30.3122 21.1639 30.0738 21.4685 29.7669C21.7731 29.4599 22.0088 29.0915 22.1596 28.6862C22.3104 28.2809 22.373 27.8481 22.3432 27.4167C22.3432 20.5368 22.3432 13.657 22.3432 6.7772L22.3478 6.42931Z" fill="white"/>
</svg>
