<svg width="41" height="35" viewBox="0 0 41 35" fill="none" xmlns="http://www.w3.org/2000/svg">
<path d="M20.1249 14.4896C24.1261 14.4896 27.3697 11.246 27.3697 7.24482C27.3697 3.24362 24.1261 0 20.1249 0C16.1237 0 12.8801 3.24362 12.8801 7.24482C12.8801 11.246 16.1237 14.4896 20.1249 14.4896Z" fill="white"/>
<path d="M33.8097 14.4891C36.4771 14.4891 38.6396 12.3267 38.6396 9.65923C38.6396 6.99176 36.4771 4.82935 33.8097 4.82935C31.1422 4.82935 28.9798 6.99176 28.9798 9.65923C28.9798 12.3267 31.1422 14.4891 33.8097 14.4891Z" fill="white"/>
<path d="M6.43968 14.4891C9.10715 14.4891 11.2696 12.3267 11.2696 9.65923C11.2696 6.99176 9.10715 4.82935 6.43968 4.82935C3.77221 4.82935 1.6098 6.99176 1.6098 9.65923C1.6098 12.3267 3.77221 14.4891 6.43968 14.4891Z" fill="white"/>
<path d="M10.5291 17.4709C8.83063 16.0783 7.29151 16.2634 5.32736 16.2634C3.91857 16.2596 2.56594 16.8154 1.56691 17.8087C0.567883 18.802 0.0042638 20.1514 0 21.5602L0 30.13C0.00170547 30.7406 0.245575 31.3256 0.678097 31.7566C1.11062 32.1876 1.69646 32.4295 2.30707 32.429C7.80187 32.429 7.13695 32.5288 7.13695 32.1924C7.14017 26.1196 6.42213 21.6664 10.5291 17.4709Z" fill="white"/>
<path d="M21.9567 16.297C18.5259 16.0105 15.5426 16.297 12.9715 18.4238C8.66651 21.8723 9.49563 26.5138 9.49563 32.1938C9.49691 32.9223 9.78686 33.6205 10.302 34.1357C10.8171 34.6508 11.5154 34.9407 12.2438 34.942C28.8071 34.942 29.4704 35.4765 30.4493 33.3014C30.7713 32.5657 30.6827 32.7991 30.6827 25.7636C30.6792 23.3792 29.7804 21.0831 28.1644 19.3299C26.5484 17.5768 24.3329 16.4944 21.9567 16.297Z" fill="white"/>
<path d="M34.8481 16.2631C32.8726 16.2631 31.3432 16.0812 29.6463 17.4706C33.7243 21.6339 33.0353 25.7828 33.0353 32.1904C33.0353 32.5285 32.4863 32.4271 37.7863 32.4271C38.4189 32.428 39.0261 32.1776 39.4743 31.7312C39.9226 31.2847 40.1754 30.6786 40.1771 30.046V21.5582C40.1724 20.1495 39.6084 18.8002 38.609 17.8072C37.6097 16.8142 36.2568 16.2588 34.8481 16.2631Z" fill="white"/>
</svg>
