<svg width="170" height="17" viewBox="0 0 170 17" fill="none" xmlns="http://www.w3.org/2000/svg">
<path d="M1.875 0.566406V2.85156H3.38672V10.7148H0.867188V13H6.07031V2.85156H7.99219C9.86719 2.85156 10.2773 4.23438 10.2773 6.08594V13H13.2773V5.94531C13.2773 2.78125 12.5273 0.566406 9.15234 0.566406H1.875ZM25.8398 10.7148H24.4219V0.566406H15.8789V2.85156H21.4688V10.7148H15.832L15.8086 13H25.8398V10.7148ZM39.1172 0.566406V7.11719C39.1172 10.3164 37.2656 10.7148 34.7227 10.7148H31.6406L30.5859 0.566406H27.7617L28.9219 13H35.8242C39.7383 13 41.8828 10.8672 41.8828 6.56641V0.566406H39.1172ZM36.4336 0.566406H33.6445V8.125H36.4336V0.566406ZM44.8125 0.566406V2.85156H53.0156V6.95312C53.0156 10.4336 52.4648 10.7383 50.3086 10.7383H49.9219V13H50.7422C54.4336 13 55.9688 11.3945 55.9688 6.56641V0.566406H44.8125ZM45 16.0469H47.9531V5.28906H45V16.0469ZM59.1211 0.566406V13H62.1445V0.566406H59.1211ZM65.5312 0.566406V2.85156H67.043V10.7148H64.5234V13H69.7266V2.85156H71.6484C73.5234 2.85156 73.9336 4.23438 73.9336 6.08594V13H76.9336V5.94531C76.9336 2.78125 76.1836 0.566406 72.8086 0.566406H65.5312ZM85.125 13H90.457V6.61328C90.4805 2.55859 89.2617 0.566406 85.5117 0.566406H79.4883V2.85156H81.5039L79.0078 13H81.9141L84.1875 2.83984H84.9844C87.0938 2.83984 87.6211 4.11719 87.6211 6.10938V10.7148H85.125V13ZM93.1875 13H96.1406V6.29688H93.1875V13ZM93.0938 0.566406V2.85156H100.406V13H103.383V0.566406H93.0938ZM112.477 13H115.43V6.29688H112.477V13ZM112.383 0.566406V2.85156H119.695V13H122.672V0.566406H112.383ZM125.883 0.566406V7.55078H128.953V0.566406H125.883ZM132.293 0.566406V13H135.316V0.566406H132.293ZM138.855 0.566406V13H141.879V0.566406H138.855ZM145.512 0.566406V13H148.465V2.85156H151.277C153.023 2.85156 153.316 4.21094 153.316 6.0625V13H156.293V5.875C156.293 2.67578 155.613 0.566406 152.238 0.566406H145.512ZM159.352 13H162.305V6.29688H159.352V13ZM159.258 0.566406V2.85156H166.57V13H169.547V0.566406H159.258Z" fill="white"/>
</svg>
