<svg width="26" height="19" viewBox="0 0 26 19" fill="none" xmlns="http://www.w3.org/2000/svg">
<path opacity="0.7" d="M7.27083 9.04167C5.48833 9.04167 4.05458 7.595 4.05458 5.8125C4.05458 4.03 5.48833 2.58333 7.27083 2.58333C9.05333 2.58333 10.5 4.03 10.5 5.8125C10.5 7.595 9.05333 9.04167 7.27083 9.04167ZM16.9583 7.75C14.8206 7.75 13.0962 6.01271 13.0962 3.875C13.0962 1.73729 14.8206 0 16.9583 0C19.096 0 20.8333 1.73729 20.8333 3.875C20.8333 6.01271 19.096 7.75 16.9583 7.75ZM7.27083 11.625C9.64104 11.625 14.375 12.8133 14.375 15.1771V18.0833H0.166665V15.1771C0.166665 12.8133 4.90062 11.625 7.27083 11.625ZM16.9583 10.3333C19.9744 10.3333 26 11.8446 26 14.8542V18.0833H16.9583V15.1771C16.9583 14.0792 16.5256 12.161 13.8971 10.695C15.0208 10.456 16.1123 10.3333 16.9583 10.3333Z" fill="white"/>
</svg>
