<svg width="96" height="62" viewBox="0 0 96 62" fill="none" xmlns="http://www.w3.org/2000/svg">
<g id="Layer_1" clip-path="url(#clip0_961_15578)">
<path id="Vector" d="M45.3773 12.165C45.4437 29.5008 45.2391 43.7621 45.3054 61.098H89.8201L89.3335 6.79004L45.3773 12.165Z" fill="url(#paint0_linear_961_15578)" fill-opacity="0.2"/>
<path id="Vector_2" d="M89.8202 61.5792H45.3055C45.0401 61.5792 44.8244 61.3636 44.8244 61.0981C44.7912 52.4274 44.8244 44.3982 44.8576 36.6289C44.8908 28.8651 44.9239 20.8303 44.8908 12.1651C44.8908 11.9218 45.0733 11.7172 45.311 11.684L89.2672 6.3091C89.4055 6.29251 89.5382 6.33675 89.6432 6.42523C89.7483 6.5137 89.8036 6.64642 89.8091 6.78466L90.2958 61.0926C90.2958 61.2198 90.246 61.347 90.1575 61.4354C90.069 61.5239 89.9419 61.5792 89.8147 61.5792H89.8202ZM45.7866 60.617H89.3336L88.858 7.33211L45.8585 12.5909C45.8917 21.0957 45.8585 28.9922 45.8198 36.6344C45.7866 44.2544 45.7534 52.1344 45.7811 60.617H45.7866Z" fill="black"/>
<path id="Vector_3" d="M44.9239 12.165C44.8575 29.5008 45.0621 43.7621 44.9958 61.098H0.481079L0.967699 6.79004L44.9239 12.165Z" fill="url(#paint1_linear_961_15578)" fill-opacity="0.2"/>
<path id="Vector_4" d="M44.9958 61.5795H0.481091C0.353906 61.5795 0.232251 61.5298 0.138244 61.4358C0.049768 61.3473 0 61.2201 0 61.0929L0.48662 6.79052C0.48662 6.65228 0.547448 6.52509 0.652514 6.43109C0.757579 6.34261 0.890294 6.29837 1.02854 6.31496L44.9847 11.6899C45.228 11.7176 45.4105 11.9277 45.405 12.171C45.3718 20.8362 45.405 28.8654 45.4382 36.6347C45.4713 44.4041 45.5045 52.4333 45.4714 61.104C45.4714 61.3694 45.2557 61.5851 44.9903 61.5851L44.9958 61.5795ZM0.967711 60.6174H44.5147C44.5479 52.1347 44.5147 44.2548 44.476 36.6347C44.4428 28.9926 44.4096 21.0961 44.4373 12.5913L1.44327 7.33797L0.967711 60.6229V60.6174Z" fill="black"/>
<path id="Vector_5" d="M45.4161 9.09068C45.4714 26.4265 45.2502 43.7624 45.3055 61.0982L83.6711 55.2698L83.2508 0.961914L45.4105 9.09068H45.4161Z" fill="white"/>
<path id="Vector_6" d="M45.3109 61.5801C45.1948 61.5801 45.0842 61.5414 44.9957 61.4639C44.8907 61.3755 44.8298 61.2427 44.8298 61.099C44.8022 52.4283 44.8409 43.6138 44.8851 35.0924C44.9239 26.571 44.9681 17.7566 44.9404 9.09143C44.9404 8.8647 45.1008 8.66563 45.322 8.62139L83.1567 0.492624C83.3005 0.464975 83.4443 0.492624 83.5604 0.58663C83.671 0.675106 83.7373 0.813351 83.7429 0.957125L84.1631 55.2651C84.1631 55.5028 83.9917 55.7074 83.7539 55.7462L45.3884 61.5745C45.3884 61.5745 45.3386 61.5745 45.3165 61.5745L45.3109 61.5801ZM45.9026 9.47851C45.9303 18.022 45.886 26.6982 45.8473 35.098C45.8086 43.4369 45.7644 52.0523 45.792 60.5405L83.1954 54.8559L82.7862 1.55434L45.9081 9.47851H45.9026Z" fill="black"/>
<path id="Vector 1" d="M45.5396 9.15542L83.2724 1.34863V55.1287L45.5396 60.767V9.15542Z" fill="url(#paint2_linear_961_15578)"/>
<path id="Vector_7" d="M45.311 9.09068C45.2557 26.4265 45.1949 43.7624 45.1396 61.0982L7.05603 55.2698L7.47076 0.961914L45.311 9.09068Z" fill="white"/>
<path id="Vector 2" d="M45.1058 9.15542L7.37303 1.34863V55.1287L45.1058 60.767V9.15542Z" fill="url(#paint3_linear_961_15578)"/>
<path id="Vector_8" d="M45.1341 61.5797C45.1341 61.5797 45.0843 61.5797 45.0622 61.5742L6.97866 55.7458C6.74088 55.7071 6.56946 55.508 6.56946 55.2647L6.98972 0.956742C6.98972 0.812968 7.05608 0.674724 7.1722 0.586247C7.2828 0.497771 7.4321 0.459062 7.57588 0.492241L45.4161 8.62101C45.6373 8.67078 45.7977 8.86432 45.7977 9.09104L45.6263 61.0986C45.6263 61.2368 45.5654 61.3696 45.4604 61.4636C45.3719 61.541 45.2613 61.5797 45.1452 61.5797H45.1341ZM7.53717 54.8555L44.6586 60.5401L44.83 9.48366L7.94637 1.55949L7.53717 54.861V54.8555Z" fill="black"/>
<path id="Vector_9" d="M16.4731 32.8301C21.6269 33.3112 33.3445 35.1969 37.3868 35.5784C37.3868 29.3132 37.0771 23.0148 37.1932 16.7053C32.8855 15.9588 22.2683 14.4768 16.6114 13.498C16.6114 19.8075 16.4787 26.5538 16.4787 32.8301H16.4731Z" fill="white"/>
<path id="Vector_10" d="M37.3868 36.0601C37.3868 36.0601 37.3591 36.0601 37.3425 36.0601C35.4292 35.8832 31.8293 35.3689 28.0138 34.827C23.6563 34.2076 19.1496 33.5662 16.4289 33.3118C16.1801 33.2897 15.9921 33.0796 15.9921 32.8307C15.9921 29.6953 16.0252 26.383 16.0584 23.1813C16.0916 19.9685 16.1248 16.6506 16.1248 13.4931C16.1248 13.3493 16.1856 13.2166 16.2962 13.1226C16.4068 13.0286 16.545 12.9899 16.6888 13.0175C19.7081 13.5373 24.06 14.1954 28.2737 14.8258C31.8681 15.3677 35.2578 15.8764 37.2706 16.2248C37.5029 16.2635 37.6743 16.4681 37.6688 16.7059C37.6024 20.3445 37.6798 24.0384 37.7517 27.6106C37.807 30.2207 37.8623 32.9192 37.8623 35.5735C37.8623 35.7062 37.807 35.8389 37.7075 35.9274C37.619 36.0103 37.5029 36.0546 37.3812 36.0546L37.3868 36.0601ZM16.9542 32.3939C19.7247 32.6704 24.0047 33.2786 28.152 33.8703C31.6247 34.3625 34.926 34.8325 36.9057 35.0426C36.9001 32.5764 36.8449 30.0658 36.7951 27.6327C36.7232 24.1877 36.6513 20.6265 36.7011 17.104C34.6661 16.7612 31.4865 16.2856 28.1299 15.7769C24.1651 15.1797 20.073 14.5659 17.087 14.0627C17.087 17.0487 17.0483 20.1675 17.0206 23.1868C16.9874 26.2392 16.9542 29.3857 16.9542 32.3883V32.3939Z" fill="black"/>
<path id="Vector_11" d="M18.1487 19.8297C18.1155 19.8297 18.0879 19.8187 18.0602 19.8021C17.9883 19.7523 17.9662 19.6528 18.0215 19.5809C19.0113 18.1431 20.1228 16.7883 21.3283 15.5497C21.3891 15.4888 21.4942 15.4833 21.555 15.5497C21.6159 15.6105 21.6214 15.7156 21.555 15.7764C20.3661 16.9985 19.2657 18.3422 18.2869 19.7634C18.2538 19.8076 18.204 19.8352 18.1542 19.8352L18.1487 19.8297Z" fill="black"/>
<path id="Vector_12" d="M18.1487 23.5566C18.11 23.5566 18.0768 23.5455 18.0436 23.5179C17.9773 23.4626 17.9662 23.3575 18.027 23.2912C20.073 20.8636 22.0969 18.3531 24.0489 15.837C24.1042 15.7651 24.2038 15.7541 24.2757 15.8094C24.3476 15.8647 24.3586 15.9642 24.3033 16.0361C22.3513 18.5522 20.3163 21.0627 18.2703 23.4958C18.2372 23.5345 18.1929 23.5511 18.1487 23.5511V23.5566Z" fill="black"/>
<path id="Vector_13" d="M17.6179 27.9481C17.5847 27.9481 17.546 27.937 17.5183 27.9094C17.452 27.8541 17.4409 27.7545 17.4962 27.6827L26.8084 16.3798C26.8637 16.3134 26.9632 16.3024 27.0351 16.3577C27.1014 16.413 27.1125 16.5125 27.0572 16.5844L17.7451 27.8928C17.7119 27.9315 17.6676 27.9536 17.6234 27.9536L17.6179 27.9481Z" fill="black"/>
<path id="Vector_14" d="M17.7892 31.4807C17.7505 31.4807 17.7118 31.4696 17.6842 31.442C17.6178 31.3811 17.6123 31.2816 17.6676 31.2152C21.6988 26.6145 25.6692 21.8423 29.4626 17.0314C29.5179 16.9595 29.6174 16.9484 29.6893 17.0037C29.7612 17.059 29.7723 17.1586 29.717 17.2304C25.9235 22.0469 21.9476 26.8246 17.9109 31.4309C17.8777 31.4696 17.8335 31.4862 17.7892 31.4862V31.4807Z" fill="black"/>
<path id="Vector_15" d="M21.0961 31.984C21.0629 31.984 21.0298 31.9729 20.9966 31.9508C20.9247 31.8955 20.9136 31.796 20.9689 31.7241C24.6849 26.9021 28.5392 22.1023 32.4377 17.4462C32.493 17.3798 32.5981 17.3688 32.6644 17.4241C32.7308 17.4794 32.7418 17.5844 32.6865 17.6508C28.7936 22.3013 24.9338 27.1012 21.2233 31.9176C21.1901 31.9563 21.1459 31.9784 21.0961 31.9784V31.984Z" fill="black"/>
<path id="Vector_16" d="M24.1762 31.985C24.143 31.985 24.1043 31.9739 24.0767 31.9463C24.0103 31.891 23.9993 31.7914 24.0546 31.7195L35.3685 17.9062C35.4238 17.8398 35.5233 17.8287 35.5952 17.884C35.6616 17.9393 35.6726 18.0389 35.6173 18.1108L24.3034 31.9241C24.2702 31.9628 24.226 31.985 24.1818 31.985H24.1762Z" fill="black"/>
<path id="Vector_17" d="M27.389 32.642C27.3503 32.642 27.3171 32.631 27.284 32.6033C27.2176 32.548 27.2066 32.4429 27.2674 32.3766C30.0101 29.1527 32.7363 25.8349 35.363 22.517C35.4183 22.4506 35.5178 22.434 35.5897 22.4893C35.6616 22.5446 35.6726 22.6442 35.6173 22.7161C32.9852 26.0395 30.259 29.3573 27.5162 32.5812C27.483 32.6199 27.4388 32.6365 27.3946 32.6365L27.389 32.642Z" fill="black"/>
<path id="Vector_18" d="M30.6184 33.317C30.5852 33.317 30.552 33.306 30.5243 33.2838C30.4525 33.2341 30.4359 33.129 30.4912 33.0626C31.94 31.0664 33.4828 29.0978 35.0698 27.2011C35.1251 27.1347 35.2302 27.1237 35.2965 27.179C35.3629 27.2343 35.374 27.3393 35.3187 27.4057C33.7371 29.2969 32.1999 31.2599 30.7566 33.2507C30.7234 33.2949 30.6792 33.317 30.6294 33.317H30.6184Z" fill="black"/>
<path id="Vector_19" d="M91.009 33.7266L72.147 25.4375L78.0638 45.1733L81.708 41.9494L89.2782 50.9961L94.9352 45.9972L87.3649 36.945L91.009 33.7266Z" fill="#ED4136"/>
<path id="Vector_20" d="M89.2783 51.4765C89.2783 51.4765 89.2562 51.4765 89.2396 51.4765C89.1124 51.4655 88.9908 51.4047 88.9078 51.3051L81.6527 42.6344L78.3791 45.5265C78.2575 45.6371 78.086 45.6758 77.9312 45.626C77.7708 45.5818 77.6492 45.4601 77.6049 45.2998L71.6881 25.564C71.6328 25.3815 71.6881 25.188 71.8319 25.0663C71.9701 24.9447 72.1692 24.9115 72.3461 24.9889L91.2082 33.278C91.3575 33.3444 91.4626 33.4826 91.4902 33.643C91.5179 33.8034 91.457 33.9693 91.3354 34.0799L88.0396 36.9941L95.3113 45.6813C95.4772 45.8804 95.4551 46.179 95.2615 46.3504L89.6046 51.3549C89.5161 51.4323 89.4055 51.4765 89.2838 51.4765H89.2783ZM81.708 41.4676C81.708 41.4676 81.7302 41.4676 81.7468 41.4676C81.8739 41.4787 81.9956 41.5395 82.0785 41.6391L89.3336 50.3098L94.2717 45.9468L87 37.2595C86.8341 37.0604 86.8563 36.7618 87.0498 36.5904L90.1299 33.8642L72.9102 26.2995L78.3128 44.3155L81.3928 41.5893C81.4813 41.5119 81.5919 41.4676 81.7136 41.4676H81.708Z" fill="black"/>
<path id="Vector_21" d="M33.5326 33.8371C33.4939 33.8371 33.4607 33.826 33.4275 33.7984C33.3612 33.7431 33.3501 33.638 33.4054 33.5716C33.9639 32.9081 34.5003 32.2113 34.998 31.498C35.0477 31.4261 35.1473 31.4095 35.2192 31.4593C35.2911 31.509 35.3076 31.6086 35.2579 31.6805C34.7547 32.3993 34.2127 33.1071 33.6432 33.7762C33.61 33.815 33.5658 33.8315 33.5215 33.8315L33.5326 33.8371Z" fill="black"/>
<path id="Vector_22" d="M17.8556 16.6447C17.8169 16.6447 17.7837 16.6337 17.7505 16.606C17.6842 16.5507 17.6731 16.4512 17.7284 16.3793C18.0768 15.959 18.4583 15.5554 18.862 15.1738C18.9284 15.113 19.0279 15.1185 19.0887 15.1793C19.1496 15.2457 19.144 15.3452 19.0832 15.4061C18.6906 15.7766 18.3201 16.1692 17.9772 16.5839C17.9441 16.6226 17.8998 16.6392 17.8556 16.6392V16.6447Z" fill="black"/>
<path id="Vector_23" d="M55.1927 17.5015C54.9826 17.5015 54.789 17.3577 54.7282 17.1476C54.6563 16.8932 54.8112 16.6278 55.0655 16.5559C61.8672 14.7255 68.8291 13.1496 75.758 11.8722C76.0179 11.8279 76.2722 11.9994 76.3165 12.2593C76.3662 12.5192 76.1893 12.7735 75.9294 12.8178C69.0282 14.0841 62.0939 15.6546 55.3144 17.4794C55.2701 17.4904 55.2314 17.496 55.1872 17.496L55.1927 17.5015Z" fill="black"/>
<path id="Vector_24" d="M55.1927 25.564C54.9826 25.564 54.789 25.4202 54.7282 25.2101C54.6563 24.9557 54.8112 24.6903 55.0655 24.6184C61.8672 22.788 68.8291 21.2121 75.758 19.9347C76.0179 19.8904 76.2722 20.0619 76.3165 20.3218C76.3662 20.5817 76.1893 20.836 75.9294 20.8803C69.0282 22.1466 62.0939 23.7171 55.3144 25.5419C55.2701 25.5529 55.2314 25.5585 55.1872 25.5585L55.1927 25.564Z" fill="black"/>
<path id="Vector_25" d="M37.2043 43.5143C37.2043 43.5143 37.1712 43.5143 37.1546 43.5143C30.1981 42.7733 23.2085 41.8554 16.3792 40.7881C16.1138 40.7494 15.9368 40.5006 15.9755 40.2407C16.0142 39.9808 16.2631 39.8038 16.523 39.837C23.3357 40.9042 30.3087 41.8167 37.2486 42.5577C37.514 42.5853 37.702 42.8231 37.6744 43.0885C37.6467 43.3374 37.4366 43.5198 37.1988 43.5198L37.2043 43.5143Z" fill="black"/>
<path id="Vector_26" d="M55.1927 34.6392C54.9826 34.6392 54.789 34.4954 54.7282 34.2853C54.6563 34.0309 54.8112 33.7655 55.0655 33.6936C59.611 32.466 64.2615 31.4098 68.8955 30.5582C69.1554 30.5084 69.4098 30.6854 69.454 30.9453C69.5038 31.2052 69.3268 31.4596 69.0669 31.5038C64.4606 32.3554 59.8322 33.4005 55.3144 34.6226C55.2701 34.6336 55.2314 34.6392 55.1872 34.6392H55.1927Z" fill="black"/>
<path id="Vector_27" d="M55.1926 43.7128C54.977 43.7128 54.7779 43.569 54.7281 43.3478C54.6618 43.0879 54.8221 42.828 55.082 42.7672C60.0478 41.5396 65.1296 40.4834 70.1894 39.6318C70.4493 39.5875 70.6981 39.7645 70.7424 40.0244C70.7866 40.2843 70.6096 40.5331 70.3497 40.5774C65.3121 41.429 60.2524 42.4741 55.3088 43.6962C55.27 43.7072 55.2313 43.7128 55.1926 43.7128Z" fill="black"/>
<g id="Group" opacity="0.13">
<path id="Vector_28" d="M48.0206 40.0526C47.9597 36.2481 47.6058 32.4547 47.4621 28.6557C47.4289 25.4374 47.5727 22.2246 47.6058 19.0063C47.6335 17.7897 47.7994 16.5732 47.7275 15.3511C47.6943 13.9631 47.6556 12.5807 47.6777 11.1927C47.6556 10.3411 47.8602 8.93656 46.7211 8.78172C45.8197 8.67666 45.3995 9.484 45.6151 10.2692C45.6649 11.1319 45.5764 12.0001 45.5819 12.8682C45.5875 17.7234 45.3773 22.5785 45.4769 27.4337C45.4548 29.1147 45.6151 30.7902 45.7147 32.4658C45.781 35.5127 45.8529 38.5596 45.864 41.6065C45.8418 47.4183 45.4879 53.2301 45.6428 59.0419C45.6925 59.6059 45.5045 60.2805 45.9469 60.7229C46.5386 61.3478 47.6943 60.8833 47.6667 60.0096C47.6501 56.6641 47.7054 53.3185 47.7496 49.973C47.8989 46.6662 48.1035 43.3594 48.0206 40.0471V40.0526Z" fill="black"/>
</g>
<g id="Group_2" opacity="0.13">
<path id="Vector_29" d="M45.0787 11.2917C45.1396 10.1249 45.4216 9.70465 44.8852 9.04108C44.4317 8.57104 43.5968 8.68164 43.2705 9.25121C43.088 9.5277 43.1488 9.85948 43.1101 10.1691C43.0272 10.9157 42.9664 11.6677 42.9664 12.4198C42.8889 15.8703 43.1599 19.3099 43.1986 22.7549C43.0217 29.1418 43.0825 35.5287 43.0217 41.9156C43.0051 45.0565 42.8502 48.1974 42.8115 51.3383C42.8226 52.8258 42.8115 54.3189 42.8115 55.8064C42.8668 56.9455 42.9387 58.0847 42.8889 59.2238C42.9055 59.7657 42.6843 60.4016 43.1267 60.8274C43.6963 61.4302 44.8022 60.9823 44.7746 60.1417C44.8907 58.6929 44.8465 57.2441 44.7746 55.7953C44.7967 53.976 44.7967 52.1512 44.8022 50.3319C45.0456 44.6141 44.8188 38.8963 44.8299 33.1785C44.9792 30.5187 44.9405 27.8589 45.0345 25.1991C45.3055 22.2572 45.134 19.3099 44.9681 16.368C45.0179 14.6759 45.0124 12.9838 45.0732 11.2972L45.0787 11.2917Z" fill="black"/>
</g>
<g id="Group_3" opacity="0.13">
<path id="Vector_30" d="M82.2831 55.6416C82.2831 55.6416 82.2499 55.6638 82.2223 55.6804C82.2278 55.6693 82.2388 55.6638 82.2444 55.6527C82.2278 55.6693 82.2112 55.6804 82.1946 55.6969C82.1614 55.7191 82.1282 55.7301 82.0951 55.7467C82.0121 55.7744 81.9292 55.7965 81.8407 55.8186C81.8296 55.8186 81.8186 55.8186 81.8075 55.8241C81.6748 55.8407 81.4426 55.8684 81.3154 55.8905C80.4804 56.0177 80.0656 56.084 79.8334 56.1117C77.6547 56.4932 72.5894 56.8582 68.7849 57.5328C66.7665 57.8812 64.433 58.119 62.586 58.3678C60.8054 58.6222 59.0414 58.9927 57.2553 59.2471C57.1226 59.2692 55.5079 59.4682 54.59 59.5346C54.0204 59.5844 53.4121 59.4627 52.8702 59.6452C51.9744 59.977 52.2564 61.3926 53.2186 61.3705C54.8167 61.3484 56.4037 61.1714 57.9852 60.9336C58.1124 60.9115 58.411 60.8673 58.4885 60.8562C61.0819 60.5244 63.0671 60.353 66.0311 60.0323C66.9822 59.9493 70.101 59.424 70.842 59.3355C73.5682 59.0093 76.4105 58.6941 78.3846 58.3568C78.733 58.2185 81.3541 58.2572 82.6149 57.931C85.5291 57.013 83.6434 54.3587 82.2831 55.6416Z" fill="black"/>
</g>
<g id="Group_4" opacity="0.13">
<path id="Vector_31" d="M38.9739 59.8384C38.7969 59.6836 38.5923 59.5785 38.3601 59.5619C38.1997 59.5398 37.8845 59.4901 37.7573 59.479C36.5905 59.3131 35.4127 59.3739 34.2404 59.3573C31.6359 59.0643 30.2313 58.7767 26.9632 58.3952C26.0508 58.3343 23.9992 57.7869 22.2684 57.5546C22.9431 57.6431 21.8592 57.4883 21.5938 57.4606C21.3837 57.4385 20.6206 57.3722 20.5597 57.3722C19.1607 57.1786 17.5681 56.9408 17.0538 56.8745C15.2843 56.6367 10.8605 55.8957 8.12326 55.21C6.70763 54.6626 5.91688 56.7473 7.38227 57.2339C9.96467 57.715 12.5305 58.2956 15.1295 58.7104C18.2593 59.2523 19.5699 59.3186 23.2693 59.9933C27.0517 60.6071 28.4618 60.9002 32.7031 61.2706C33.4054 61.3259 34.1132 61.3536 34.81 61.2319C34.727 61.243 34.6441 61.2541 34.5611 61.2651C34.6275 61.2651 34.7049 61.2706 34.7657 61.2817C34.8984 61.3038 35.0311 61.3259 35.1639 61.3481C35.5178 61.42 37.0661 61.5471 36.4136 61.4697C36.8892 61.5527 37.3702 61.5084 37.8513 61.5029C38.1223 61.4918 38.4098 61.5527 38.6587 61.4199C39.2891 61.2043 39.455 60.2919 38.9739 59.8384Z" fill="black"/>
</g>
<g id="Group_5" opacity="0.13">
<path id="Vector_32" d="M89.599 51.8637C89.5437 51.6481 89.4055 51.4822 89.2562 51.3273C88.5871 50.5532 88.8248 50.8075 88.2553 50.0887C87.1383 48.8555 86.9447 48.5016 85.8609 47.1689C84.6554 45.7036 83.3725 44.1995 82.6591 43.3368C82.6481 42.5073 81.5753 41.8935 80.8564 42.6069C80.4583 43.1709 79.5293 43.9561 79.1146 44.2713C78.733 44.6474 78.2021 44.9404 77.9588 45.4215C77.5275 46.3395 78.7883 47.1745 79.485 46.4501C80.2094 45.792 80.6131 45.4934 81.2933 44.9349C82.1449 45.98 82.626 46.5496 83.6711 47.8215C83.6766 47.8325 83.6821 47.838 83.6932 47.8491C84.3125 48.7726 85.0978 49.5523 85.8443 50.3652C86.6406 51.3163 86.6295 51.2886 87.2323 52.096C87.5475 52.4278 87.7963 52.8923 88.2276 53.0692C88.9686 53.4397 89.8423 52.649 89.6045 51.8693L89.599 51.8637Z" fill="black"/>
</g>
</g>
<defs>
<linearGradient id="paint0_linear_961_15578" x1="62.0205" y1="23.0335" x2="79.369" y2="61.2001" gradientUnits="userSpaceOnUse">
<stop stop-color="#283342"/>
<stop offset="1" stop-color="#B8B3A0" stop-opacity="0"/>
</linearGradient>
<linearGradient id="paint1_linear_961_15578" x1="22.5529" y1="28.2381" x2="0.867407" y2="61.2" gradientUnits="userSpaceOnUse">
<stop stop-color="#273240"/>
<stop offset="1" stop-color="#B8B3A0" stop-opacity="0"/>
</linearGradient>
<linearGradient id="paint2_linear_961_15578" x1="78.5015" y1="4.81832" x2="47.7081" y2="60.3333" gradientUnits="userSpaceOnUse">
<stop stop-color="#FFDB50"/>
<stop offset="1" stop-color="#FFDB50" stop-opacity="0"/>
</linearGradient>
<linearGradient id="paint3_linear_961_15578" x1="6.93932" y1="1.34863" x2="48.5755" y2="71.6097" gradientUnits="userSpaceOnUse">
<stop stop-color="#FFDB50"/>
<stop offset="1" stop-color="#9ED7C5"/>
</linearGradient>
<clipPath id="clip0_961_15578">
<rect width="95.4163" height="61.0985" fill="white" transform="translate(0 0.481445)"/>
</clipPath>
</defs>
</svg>
