<svg width="51" height="45" viewBox="0 0 51 45" fill="none" xmlns="http://www.w3.org/2000/svg">
<g id="Group">
<path id="Vector" d="M48.9672 40.8495H14.4752C14.127 39.785 13.1321 38.999 11.9482 38.999C10.7643 38.999 9.76947 39.775 9.42127 40.8495H1.96972C1.42254 40.8495 0.974854 41.2972 0.974854 41.8443C0.974854 42.3915 1.42254 42.8392 1.96972 42.8392H9.5506C9.98834 43.7346 10.8937 44.3514 11.9482 44.3514C13.0028 44.3514 13.9081 43.7346 14.3459 42.8392H48.9672C49.5144 42.8392 49.9621 42.3915 49.9621 41.8443C49.9621 41.2972 49.5144 40.8495 48.9672 40.8495Z" fill="#304254"/>
<path id="Vector_2" d="M22.9618 12.7842C22.6534 12.6051 22.2753 12.6051 21.9669 12.7842C21.6585 12.9633 21.4695 13.2916 21.4695 13.6497V23.2005C21.4695 23.5586 21.6585 23.8869 21.9669 24.066C22.1161 24.1555 22.2952 24.1953 22.4643 24.1953C22.6335 24.1953 22.8126 24.1555 22.9618 24.066L31.2391 19.2906C31.5475 19.1116 31.7365 18.7833 31.7365 18.4251C31.7365 18.0669 31.5475 17.7386 31.2391 17.5596L22.9618 12.7842ZM23.4592 21.4793V15.3709L28.7519 18.4251L23.4592 21.4793Z" fill="#304254"/>
<path id="Vector_3" d="M47.2064 0H3.73075C1.67138 0 0 1.68132 0 3.7407V32.5222C0 34.5816 1.67138 36.2529 3.73075 36.2529H47.1965C49.2558 36.2529 50.9272 34.5816 50.9272 32.5222V3.7407C50.9371 1.68132 49.2658 0 47.2064 0ZM48.9474 32.5222C48.9474 33.4673 48.1515 34.2731 47.1965 34.2731H3.73075C2.76573 34.2731 1.97978 33.4872 1.97978 32.5222V3.7407C1.97978 2.77568 2.76573 1.98973 3.73075 1.98973H47.1965C48.1615 1.98973 48.9474 2.77568 48.9474 3.7407V32.5222Z" fill="#304254"/>
<path id="Vector_4" d="M20.3747 9.31171C15.5098 12.1272 13.8285 18.3749 16.644 23.2398C18.5342 26.503 21.9665 28.3336 25.4883 28.3336C27.2194 28.3336 28.9704 27.8958 30.5721 26.9706C35.437 24.1651 37.1084 17.9173 34.3029 13.0425C31.4874 8.17756 25.2396 6.49624 20.3747 9.31171ZM29.5673 25.2495C25.6475 27.5178 20.6235 26.1647 18.3552 22.245C16.0968 18.3252 17.4399 13.3011 21.3597 11.0328C23.2598 9.93848 25.4684 9.64002 27.5875 10.217C29.7066 10.7841 31.4774 12.1471 32.5718 14.0373C34.8401 17.9571 33.4871 22.9812 29.5673 25.2495Z" fill="#304254"/>
</g>
</svg>
