<svg width="408" height="216" viewBox="0 0 408 216" fill="none" xmlns="http://www.w3.org/2000/svg">
<g opacity="0.2">
<circle cx="4" cy="20" r="4" fill="white"/>
<circle cx="36" cy="20" r="4" fill="white"/>
<circle cx="68" cy="20" r="4" fill="white"/>
<circle cx="100" cy="20" r="4" fill="white"/>
<circle cx="132" cy="20" r="4" fill="white"/>
<circle cx="164" cy="20" r="4" fill="white"/>
<circle cx="196" cy="20" r="4" fill="white"/>
<circle cx="228" cy="20" r="4" fill="white"/>
<circle cx="260" cy="20" r="4" fill="white"/>
<circle cx="292" cy="20" r="4" fill="white"/>
<circle cx="324" cy="20" r="4" fill="white"/>
<circle cx="356" cy="20" r="4" fill="white"/>
<circle cx="388" cy="20" r="4" fill="white"/>
<circle cx="4" cy="52" r="4" fill="white"/>
<circle cx="36" cy="52" r="4" fill="white"/>
<circle cx="68" cy="52" r="4" fill="white"/>
<circle cx="100" cy="52" r="4" fill="white"/>
<circle cx="132" cy="52" r="4" fill="white"/>
<circle cx="164" cy="52" r="4" fill="white"/>
<circle cx="196" cy="52" r="4" fill="white"/>
<circle cx="228" cy="52" r="4" fill="white"/>
<circle cx="260" cy="52" r="4" fill="white"/>
<circle cx="292" cy="52" r="4" fill="white"/>
<circle cx="324" cy="52" r="4" fill="white"/>
<circle cx="356" cy="52" r="4" fill="white"/>
<circle cx="388" cy="52" r="4" fill="white"/>
<circle cx="4" cy="84" r="4" fill="white"/>
<circle cx="36" cy="84" r="4" fill="white"/>
<circle cx="68" cy="84" r="4" fill="white"/>
<circle cx="100" cy="84" r="4" fill="white"/>
<circle cx="132" cy="84" r="4" fill="white"/>
<circle cx="164" cy="84" r="4" fill="white"/>
<circle cx="196" cy="84" r="4" fill="white"/>
<circle cx="228" cy="84" r="4" fill="white"/>
<circle cx="260" cy="84" r="4" fill="white"/>
<circle cx="292" cy="84" r="4" fill="white"/>
<circle cx="324" cy="84" r="4" fill="white"/>
<circle cx="356" cy="84" r="4" fill="white"/>
<circle cx="388" cy="84" r="4" fill="white"/>
<circle cx="4" cy="116" r="4" fill="white"/>
<circle cx="36" cy="116" r="4" fill="white"/>
<circle cx="68" cy="116" r="4" fill="white"/>
<circle cx="100" cy="116" r="4" fill="white"/>
<circle cx="132" cy="116" r="4" fill="white"/>
<circle cx="164" cy="116" r="4" fill="white"/>
<circle cx="196" cy="116" r="4" fill="white"/>
<circle cx="228" cy="116" r="4" fill="white"/>
<circle cx="260" cy="116" r="4" fill="white"/>
<circle cx="292" cy="116" r="4" fill="white"/>
<circle cx="324" cy="116" r="4" fill="white"/>
<circle cx="356" cy="116" r="4" fill="white"/>
<circle cx="388" cy="116" r="4" fill="white"/>
<circle cx="4" cy="148" r="4" fill="white"/>
<circle cx="36" cy="148" r="4" fill="white"/>
<circle cx="68" cy="148" r="4" fill="white"/>
<circle cx="100" cy="148" r="4" fill="white"/>
<circle cx="132" cy="148" r="4" fill="white"/>
<circle cx="164" cy="148" r="4" fill="white"/>
<circle cx="196" cy="148" r="4" fill="white"/>
<circle cx="228" cy="148" r="4" fill="white"/>
<circle cx="260" cy="148" r="4" fill="white"/>
<circle cx="292" cy="148" r="4" fill="white"/>
<circle cx="324" cy="148" r="4" fill="white"/>
<circle cx="356" cy="148" r="4" fill="white"/>
<circle cx="388" cy="148" r="4" fill="white"/>
<circle cx="4" cy="180" r="4" fill="white"/>
<circle cx="36" cy="180" r="4" fill="white"/>
<circle cx="68" cy="180" r="4" fill="white"/>
<circle cx="100" cy="180" r="4" fill="white"/>
<circle cx="132" cy="180" r="4" fill="white"/>
<circle cx="164" cy="180" r="4" fill="white"/>
<circle cx="196" cy="180" r="4" fill="white"/>
<circle cx="228" cy="180" r="4" fill="white"/>
<circle cx="260" cy="180" r="4" fill="white"/>
<circle cx="292" cy="180" r="4" fill="white"/>
<circle cx="324" cy="180" r="4" fill="white"/>
<circle cx="356" cy="180" r="4" fill="white"/>
<circle cx="388" cy="180" r="4" fill="white"/>
<circle cx="4" cy="212" r="4" fill="white"/>
<circle cx="36" cy="212" r="4" fill="white"/>
<circle cx="68" cy="212" r="4" fill="white"/>
<circle cx="100" cy="212" r="4" fill="white"/>
<circle cx="132" cy="212" r="4" fill="white"/>
<circle cx="164" cy="212" r="4" fill="white"/>
<circle cx="196" cy="212" r="4" fill="white"/>
<circle cx="228" cy="212" r="4" fill="white"/>
<circle cx="260" cy="212" r="4" fill="white"/>
<circle cx="292" cy="212" r="4" fill="white"/>
<circle cx="324" cy="212" r="4" fill="white"/>
<circle cx="356" cy="212" r="4" fill="white"/>
<circle cx="388" cy="212" r="4" fill="white"/>
</g>
</svg>
