<svg width="14" height="17" viewBox="0 0 14 17" fill="none" xmlns="http://www.w3.org/2000/svg">
<path d="M12.5226 4.8951C12.8189 4.5988 12.9819 4.20531 12.9819 3.78673C12.9819 3.36815 12.8189 2.97466 12.5226 2.67836L11.2794 1.43517C10.9831 1.13887 10.5896 0.97583 10.171 0.97583C9.75244 0.97583 9.35894 1.13887 9.06343 1.43438L0.729492 9.74246V13.2032H4.18864L12.5226 4.8951ZM10.171 2.54354L11.415 3.78595L10.1687 5.02757L8.92547 3.78516L10.171 2.54354ZM2.2972 11.6355V10.3931L7.81553 4.89197L9.05873 6.13516L3.54118 11.6355H2.2972ZM0.729492 14.7709H13.2712V16.3386H0.729492V14.7709Z" fill="#1C2A3A"/>
</svg>
