<svg width="50" height="34" viewBox="0 0 50 34" fill="none" xmlns="http://www.w3.org/2000/svg">
<path d="M18.8113 30.3412C18.8113 31.7072 17.4104 32.8159 15.6823 32.8159H14.8478C13.1198 32.8159 11.7197 31.7081 11.7197 30.3412V3.45916C11.7197 2.09229 13.1207 0.985352 14.8478 0.985352H15.6823C17.4104 0.985352 18.8113 2.09229 18.8113 3.45916V30.3412Z" fill="white" stroke="white" stroke-width="1.79262" stroke-miterlimit="10" stroke-linecap="round" stroke-linejoin="round"/>
<path d="M11.7188 25.7246C11.7188 27.0905 10.611 28.1984 9.24411 28.1984H7.5949C6.22983 28.1984 5.12109 27.0914 5.12109 25.7246V7.74822C5.12109 6.38225 6.22893 5.27441 7.5949 5.27441H9.24411C10.6101 5.27441 11.7188 6.38225 11.7188 7.74822V25.7246Z" fill="white" stroke="#3995F5" stroke-miterlimit="10" stroke-linecap="round" stroke-linejoin="round"/>
<path d="M30.6807 30.3412C30.6807 31.7072 32.0816 32.8159 33.8088 32.8159H34.6441C36.3713 32.8159 37.7723 31.7081 37.7723 30.3412V3.45916C37.7723 2.09229 36.3713 0.985352 34.6441 0.985352H33.8088C32.0807 0.985352 30.6807 2.09229 30.6807 3.45916V30.3412Z" fill="white" stroke="white" stroke-width="1.79262" stroke-miterlimit="10" stroke-linecap="round" stroke-linejoin="round"/>
<path d="M37.7725 25.7246C37.7725 27.0905 38.8794 28.1984 40.2463 28.1984H41.8964C43.2615 28.1984 44.3702 27.0914 44.3702 25.7246V7.74822C44.3702 6.38225 43.2623 5.27441 41.8964 5.27441H40.2463C38.8803 5.27441 37.7725 6.38225 37.7725 7.74822V25.7246Z" fill="white" stroke="#3995F5" stroke-miterlimit="10" stroke-linecap="round" stroke-linejoin="round"/>
<path d="M4.22671 19.871H3.47381C2.10784 19.871 1 18.7641 1 17.3972V16.1603C1 14.7944 2.10694 13.6865 3.47381 13.6865H4.22671" fill="white"/>
<path d="M4.22671 19.871H3.47381C2.10784 19.871 1 18.7641 1 17.3972V16.1603C1 14.7944 2.10694 13.6865 3.47381 13.6865H4.22671" stroke="white" stroke-miterlimit="10" stroke-linecap="round" stroke-linejoin="round"/>
<path d="M29.7843 19.8721H19.708" stroke="white" stroke-width="1.79262" stroke-miterlimit="10" stroke-linecap="round" stroke-linejoin="round"/>
<path d="M45.2656 13.6865H46.1064C47.4723 13.6865 48.5802 14.7935 48.5802 16.1603V17.3972C48.5802 18.7632 47.4732 19.871 46.1064 19.871H45.2656" fill="white"/>
<path d="M45.2656 13.6865H46.1064C47.4723 13.6865 48.5802 14.7935 48.5802 16.1603V17.3972C48.5802 18.7632 47.4732 19.871 46.1064 19.871H45.2656" stroke="white" stroke-miterlimit="10" stroke-linecap="round" stroke-linejoin="round"/>
<path d="M19.708 13.6865H29.7843" stroke="white" stroke-width="1.79262" stroke-miterlimit="10" stroke-linecap="round" stroke-linejoin="round"/>
</svg>
