<svg width="40" height="35" viewBox="0 0 40 35" fill="none" xmlns="http://www.w3.org/2000/svg">
<g id="Group 1000001310">
<path id="Vector" d="M38.9997 30.8377C38.9997 32.5772 37.5764 34.0005 35.8368 34.0005H4.99881C3.25923 34.0005 1.83594 32.5772 1.83594 30.8377V12.6512C1.83594 10.9116 3.25923 9.48828 4.99881 9.48828H35.8368C37.5764 9.48828 38.9997 10.9116 38.9997 12.6512V30.8377Z" fill="#BACEE9" stroke="#BACEE9" stroke-width="1.99091" stroke-miterlimit="10" stroke-linecap="round" stroke-linejoin="round"/>
<path id="Vector_2" d="M1.83594 7.90718V3.16287C1.83594 1.42329 3.25923 0 4.99881 0H16.8596C18.5992 0 20.0224 1.58144 20.0224 3.16287H35.8368C37.5764 3.16287 38.9997 4.58616 38.9997 6.32574V7.90718" fill="#A4BAD8"/>
<path id="Vector_3" d="M19.1524 17.3168L26.4271 21.5076C27.455 22.1402 27.455 23.6425 26.4271 24.2751L19.2315 28.4659C18.2036 29.0985 16.9384 28.3078 16.9384 27.1217V18.7401C16.8594 17.475 18.0454 16.7633 19.1524 17.3168Z" stroke="white" stroke-width="1.99091" stroke-miterlimit="10" stroke-linecap="round" stroke-linejoin="round"/>
</g>
</svg>
