<svg width="43" height="56" viewBox="0 0 43 56" fill="none" xmlns="http://www.w3.org/2000/svg">
<path d="M5 33.8676L18.7489 36.1818L31.0004 42.8067L25.3966 16.8743L5 33.8676Z" fill="#1D99FF"/>
<path d="M16.3833 31.7556L10.0342 50.2053L16.9421 52.5826L23.2913 34.1328L16.3833 31.7556Z" fill="#1D99FF"/>
<path d="M22.1987 10.2042C22.9248 9.84118 23.2425 8.95634 22.8795 8.23033L19.8165 1.96843C19.4535 1.24242 18.5687 0.924784 17.8427 1.28779C17.1167 1.6508 16.7991 2.53563 17.1621 3.26165L20.2249 9.52354C20.5879 10.2496 21.4727 10.5672 22.1987 10.2042Z" fill="#EC680F"/>
<path d="M27.8927 9.86399C28.6641 10.1362 29.5036 9.72786 29.7759 8.95647L32.0447 2.37694C32.3169 1.60555 31.9085 0.766094 31.1371 0.493838C30.3657 0.221582 29.5264 0.629966 29.2541 1.40136L26.9853 8.00357C26.713 8.77496 27.1213 9.61442 27.8927 9.88668" fill="#E60065"/>
<path d="M32.1362 13.6302C32.4992 14.3562 33.384 14.6738 34.11 14.3108L40.3719 11.248C41.098 10.8849 41.4156 10.0001 41.0526 9.2741C40.6896 8.54808 39.8047 8.23045 39.0787 8.59346L32.8168 11.6563C32.0908 12.0193 31.7732 12.9042 32.1362 13.6302Z" fill="white"/>
<path d="M32.4975 19.3249C32.2253 20.0963 32.6336 20.9358 33.4049 21.208L39.9845 23.4769C40.7559 23.7491 41.5954 23.3407 41.8677 22.5693C42.1399 21.7979 41.7315 20.9585 40.9601 20.6862L34.3805 18.4174C33.6091 18.1452 32.7698 18.5536 32.4975 19.3249Z" fill="#941D80"/>
<path d="M9.03949 11.2483C8.76723 12.0197 9.17567 12.8591 9.94706 13.1314L16.5266 15.4002C17.298 15.6724 18.1374 15.2641 18.4097 14.4927C18.6819 13.7213 18.2735 12.8818 17.5021 12.6096L10.9226 10.3408C10.1512 10.0685 9.31174 10.4769 9.03949 11.2483Z" fill="#FFDB50"/>
</svg>
