<svg width="48" height="35" viewBox="0 0 48 35" fill="none" xmlns="http://www.w3.org/2000/svg">
<path fill-rule="evenodd" clip-rule="evenodd" d="M11.4135 12L1.70651 2.29299C1.31651 1.90299 0.68251 1.90299 0.292511 2.29299C-0.0974884 2.68299 -0.0974884 3.31699 0.292511 3.70699L9.11651 12.531C9.04151 12.671 8.99951 12.83 8.99951 13V14C8.99951 14.796 9.31551 15.559 9.87851 16.121C10.4405 16.684 11.2035 17 11.9995 17C16.5815 17 25.0955 17 27.9995 17C28.2645 17 28.5195 17.105 28.7065 17.293C28.8945 17.48 28.9995 17.735 28.9995 18C28.9995 21.355 28.9995 32 28.9995 32C28.9995 33.657 30.3425 35 31.9995 35H40.9995V21C40.9995 20.448 41.4475 20 41.9995 20C42.5515 20 42.9995 20.448 42.9995 21V35H44.9995C46.6565 35 47.9995 33.657 47.9995 32C47.9995 29.476 47.9995 24.983 47.9995 21C47.9995 18.613 47.0515 16.324 45.3635 14.636C44.1515 13.424 42.6285 12.593 40.9835 12.221C40.7865 12.568 40.5785 12.898 40.3595 13.208C39.1525 14.919 37.6085 16 35.9995 16C34.3905 16 32.8465 14.919 31.6395 13.208C31.3745 12.832 31.1245 12.427 30.8925 12H11.4135Z" fill="white"/>
<path fill-rule="evenodd" clip-rule="evenodd" d="M35.9995 0C33.2395 0 30.9995 2.24 30.9995 5C30.9995 7.76 33.2395 14 35.9995 14C38.7595 14 40.9995 7.76 40.9995 5C40.9995 2.24 38.7595 0 35.9995 0Z" fill="white"/>
</svg>
