<svg width="13" height="13" viewBox="0 0 13 13" fill="none" xmlns="http://www.w3.org/2000/svg">
<path d="M5.33333 11.0002C6.51665 10.9999 7.66587 10.6038 8.598 9.87483L11.5287 12.8055L12.4713 11.8628L9.54067 8.93216C10.27 7.99994 10.6664 6.85045 10.6667 5.66683C10.6667 2.72616 8.274 0.333496 5.33333 0.333496C2.39267 0.333496 0 2.72616 0 5.66683C0 8.6075 2.39267 11.0002 5.33333 11.0002ZM5.33333 1.66683C7.53933 1.66683 9.33333 3.46083 9.33333 5.66683C9.33333 7.87283 7.53933 9.66683 5.33333 9.66683C3.12733 9.66683 1.33333 7.87283 1.33333 5.66683C1.33333 3.46083 3.12733 1.66683 5.33333 1.66683Z" fill="#445668"/>
<path d="M6.27455 4.72406C6.52722 4.97739 6.66655 5.31206 6.66655 5.66672H7.99989C8.00048 5.31634 7.93161 4.96932 7.79727 4.64571C7.66293 4.32211 7.46578 4.02834 7.21722 3.78139C6.20789 2.77339 4.45789 2.77339 3.44922 3.78139L4.39055 4.72539C4.89722 4.22006 5.77055 4.22139 6.27455 4.72406Z" fill="#445668"/>
</svg>
