<svg width="30" height="32" viewBox="0 0 30 32" fill="none" xmlns="http://www.w3.org/2000/svg">
<g id="Group 239908">
<path id="Vector" d="M18.3895 23.8306C17.1653 26.9176 14.2161 29.0653 10.7608 29.0878H10.7542C9.05948 29.0878 7.40796 28.5534 6.03459 27.5606C4.66121 26.5677 3.63594 25.167 3.10466 23.5578C2.57339 21.9485 2.56317 20.2127 3.07546 18.5973C3.58775 16.982 4.59645 15.5693 5.95804 14.5603L5.97924 14.5444L5.50891 11.6416C2.198 13.5203 8.92121e-07 17.0207 8.92121e-07 21.0351C-0.00098471 23.4568 0.814716 25.808 2.31525 27.7088C3.81579 29.6095 5.91347 30.9488 8.26923 31.5099C10.625 32.0711 13.1012 31.8214 15.2975 30.8013C17.4938 29.7812 19.282 28.0502 20.3729 25.8882L20.4007 25.8272L18.3895 23.8306Z" fill="white"/>
<path id="Vector_2" d="M21.529 19.9668C21.4334 19.8723 21.3296 19.7863 21.219 19.7098L21.2111 19.7045C20.9209 19.5057 20.5619 19.3865 20.175 19.3865H11.7871L10.702 12.6998H19.6556C19.8286 12.6998 19.9998 12.6657 20.1596 12.5995C20.3194 12.5333 20.4646 12.4363 20.5869 12.314C20.7092 12.1917 20.8062 12.0466 20.8723 11.8868C20.9385 11.727 20.9726 11.5558 20.9726 11.3828C20.9726 11.2099 20.9385 11.0386 20.8723 10.8788C20.8062 10.7191 20.7092 10.5739 20.5869 10.4516C20.4646 10.3293 20.3194 10.2323 20.1596 10.1661C19.9998 10.0999 19.8286 10.0659 19.6556 10.0659H10.2727L10.1257 9.17555C10.0848 8.93344 9.99663 8.70176 9.8662 8.49374C9.73578 8.28571 9.56566 8.10541 9.36555 7.96312C9.16545 7.82084 8.93928 7.71937 8.69996 7.66449C8.46064 7.60962 8.21285 7.60242 7.97075 7.64331C7.72865 7.68419 7.49697 7.77237 7.28894 7.90279C7.08091 8.03321 6.90061 8.20333 6.75833 8.40344C6.47098 8.80757 6.35594 9.3093 6.43851 9.79825L6.43719 9.78765L8.34503 21.4798C8.43106 21.9298 8.66756 22.3372 9.01571 22.635C9.36385 22.9328 9.80293 23.1034 10.2608 23.1187H19.4092L26.5756 30.2864C26.7472 30.465 26.9528 30.6075 27.1802 30.7056C27.4077 30.8038 27.6524 30.8556 27.9001 30.858C28.1478 30.8605 28.3935 30.8135 28.6228 30.7198C28.8521 30.6262 29.0604 30.4877 29.2356 30.3125C29.4107 30.1374 29.5492 29.9291 29.6429 29.6997C29.7365 29.4704 29.7835 29.2247 29.7811 28.977C29.7787 28.7293 29.7269 28.4846 29.6287 28.2572C29.5305 28.0298 29.388 27.8242 29.2094 27.6525L21.529 19.9668ZM11.0584 3.56595C11.0584 4.5117 10.6827 5.41871 10.014 6.08746C9.34522 6.7562 8.43821 7.1319 7.49246 7.1319C6.54671 7.1319 5.6397 6.7562 4.97096 6.08746C4.30221 5.41871 3.92651 4.5117 3.92651 3.56595C3.92651 2.6202 4.30221 1.71319 4.97096 1.04444C5.6397 0.375697 6.54671 0 7.49246 0C8.43821 0 9.34522 0.375697 10.014 1.04444C10.6827 1.71319 11.0584 2.6202 11.0584 3.56595Z" fill="white"/>
</g>
</svg>
