<svg width="11" height="17" viewBox="0 0 11 17" fill="none" xmlns="http://www.w3.org/2000/svg">
<path id="Vector" d="M5.26875 0.078125C3.87193 0.0798969 2.53284 0.635565 1.54514 1.62326C0.55744 2.61096 0.00177194 3.95006 0 5.34687H2.67857C2.67857 3.91786 3.84107 2.7567 5.26875 2.7567C6.69643 2.7567 7.85893 3.91786 7.85893 5.34687C7.85893 6.14777 7.21473 6.72902 6.23036 7.52455C5.90878 7.77647 5.59992 8.04421 5.30491 8.32678C3.9683 9.66205 3.92946 11.0804 3.92946 11.2384V12.1317H6.60804L6.6067 11.2839C6.60803 11.2625 6.65089 10.767 7.19732 10.2219C7.39821 10.021 7.65134 9.82009 7.91384 9.60848C8.95714 8.76339 10.5362 7.48705 10.5362 5.34687C10.5351 3.95007 9.97984 2.61077 8.99228 1.62295C8.00472 0.635141 6.66555 0.0795437 5.26875 0.078125ZM3.92946 13.471H6.60804V16.1496H3.92946V13.471Z" fill="white"/>
</svg>
