<svg width="32" height="32" viewBox="0 0 32 32" fill="none" xmlns="http://www.w3.org/2000/svg">
<path d="M3.67783 17.5298C3.61394 17.0187 3.56603 16.4996 3.56603 15.9725C3.56603 15.4454 3.61394 14.9263 3.67783 14.4152L0.299651 11.7717C-0.00382639 11.5321 -0.0916764 11.1009 0.10798 10.7495L3.30248 5.21502C3.50213 4.87161 3.91742 4.72786 4.2768 4.87161L8.25395 6.47685C9.07654 5.84593 9.97898 5.31085 10.9533 4.90356L11.5523 0.670845C11.6241 0.295491 11.9516 0 12.3509 0H18.7399C19.1392 0 19.4666 0.295491 19.5305 0.670845L20.1295 4.90356C21.1038 5.31085 22.0063 5.83795 22.8289 6.47685L26.806 4.87161C27.1654 4.73584 27.5807 4.87161 27.7803 5.21502L30.9748 10.7495C31.1745 11.0929 31.0866 11.5242 30.7831 11.7717L27.413 14.4152C27.4768 14.9263 27.5248 15.4454 27.5248 15.9725C27.5248 16.4996 27.4768 17.0187 27.413 17.5298L30.7831 20.1733C31.0866 20.4128 31.1745 20.8441 30.9748 21.1955L27.7803 26.73C27.5807 27.0734 27.1654 27.2171 26.806 27.0734L22.8289 25.4681C22.0063 26.0991 21.1038 26.6341 20.1295 27.0414L19.5305 31.2741C19.4666 31.6495 19.1392 31.945 18.7399 31.945H12.3509C11.9516 31.945 11.6241 31.6495 11.5603 31.2741L10.9613 27.0414C9.98697 26.6341 9.08452 26.107 8.26194 25.4681L4.28479 27.0734C3.92541 27.2091 3.51012 27.0734 3.31047 26.73L0.115968 21.1955C-0.0836885 20.8521 0.00415852 20.4208 0.307636 20.1733L3.67783 17.5298V17.5298ZM15.5454 21.5629C18.6361 21.5629 21.1358 19.0632 21.1358 15.9725C21.1358 12.8818 18.6361 10.3821 15.5454 10.3821C12.4547 10.3821 9.95502 12.8818 9.95502 15.9725C9.95502 19.0632 12.4547 21.5629 15.5454 21.5629Z" fill="#31B0F2"/>
</svg>
