<svg width="22" height="22" viewBox="0 0 22 22" fill="#002536" xmlns="http://www.w3.org/2000/svg">
<path d="M3.41312 11.8896C3.36978 11.5429 3.33728 11.1908 3.33728 10.8333C3.33728 10.4758 3.36978 10.1237 3.41312 9.77708L1.12187 7.98417C0.916035 7.82167 0.856451 7.52917 0.991867 7.29083L3.15853 3.53708C3.29395 3.30417 3.57562 3.20667 3.81937 3.30417L6.51687 4.39292C7.07478 3.965 7.68687 3.60208 8.3477 3.32583L8.75395 0.455C8.8027 0.200417 9.02479 0 9.29562 0H13.629C13.8998 0 14.1219 0.200417 14.1652 0.455L14.5715 3.32583C15.2323 3.60208 15.8444 3.95958 16.4023 4.39292L19.0998 3.30417C19.3435 3.21208 19.6252 3.30417 19.7606 3.53708L21.9273 7.29083C22.0627 7.52375 22.0031 7.81625 21.7973 7.98417L19.5115 9.77708C19.5548 10.1237 19.5873 10.4758 19.5873 10.8333C19.5873 11.1908 19.5548 11.5429 19.5115 11.8896L21.7973 13.6825C22.0031 13.845 22.0627 14.1375 21.9273 14.3758L19.7606 18.1296C19.6252 18.3625 19.3435 18.46 19.0998 18.3625L16.4023 17.2738C15.8444 17.7017 15.2323 18.0646 14.5715 18.3408L14.1652 21.2117C14.1219 21.4663 13.8998 21.6667 13.629 21.6667H9.29562C9.02479 21.6667 8.8027 21.4663 8.75937 21.2117L8.35312 18.3408C7.69229 18.0646 7.0802 17.7071 6.52229 17.2738L3.82479 18.3625C3.58104 18.4546 3.29937 18.3625 3.16395 18.1296L0.997284 14.3758C0.861868 14.1429 0.92145 13.8504 1.12728 13.6825L3.41312 11.8896ZM11.4623 14.625C13.5585 14.625 15.254 12.9296 15.254 10.8333C15.254 8.73708 13.5585 7.04167 11.4623 7.04167C9.36604 7.04167 7.67062 8.73708 7.67062 10.8333C7.67062 12.9296 9.36604 14.625 11.4623 14.625Z" fill="#002536"/>
</svg>
