<svg width="43" height="43" viewBox="0 0 43 43" fill="none" xmlns="http://www.w3.org/2000/svg">
<path d="M12.0938 34.9375H38.0729C38.815 34.9375 39.4167 34.3359 39.4167 33.5938C39.4167 32.9135 38.9111 32.3512 38.2553 32.2622L38.0729 32.25H12.0938C11.3516 32.25 10.75 32.8516 10.75 33.5938C10.75 34.274 11.2555 34.8363 11.9114 34.9253L12.0938 34.9375Z" fill="#212121"/>
<path d="M12.0938 8.0625H38.0729C38.815 8.0625 39.4167 7.46088 39.4167 6.71875C39.4167 6.03845 38.9111 5.47625 38.2553 5.38727L38.0729 5.375H12.0938C11.3516 5.375 10.75 5.97662 10.75 6.71875C10.75 7.39905 11.2555 7.96125 11.9114 8.05023L12.0938 8.0625Z" fill="#212121"/>
<path d="M24.6357 14.3335C23.8936 14.3335 23.292 14.9351 23.292 15.6772C23.292 16.4194 23.8936 17.021 24.6357 17.021H38.0732C38.8154 17.021 39.417 16.4194 39.417 15.6772C39.417 14.9351 38.8154 14.3335 38.0732 14.3335H24.6357Z" fill="#212121"/>
<path d="M23.292 24.6353C23.292 23.8931 23.8936 23.2915 24.6357 23.2915H38.0732C38.8154 23.2915 39.417 23.8931 39.417 24.6353C39.417 25.3774 38.8154 25.979 38.0732 25.979H24.6357C23.8936 25.979 23.292 25.3774 23.292 24.6353Z" fill="#212121"/>
<path d="M19.708 20.604C19.708 25.0568 16.0983 28.6665 11.6455 28.6665C7.19271 28.6665 3.58301 25.0568 3.58301 20.604C3.58301 16.1512 7.19271 12.5415 11.6455 12.5415C16.0983 12.5415 19.708 16.1512 19.708 20.604ZM12.5413 17.0207C12.5413 16.5259 12.1403 16.1248 11.6455 16.1248C11.1508 16.1248 10.7497 16.5259 10.7497 17.0207V19.7082H8.06217C7.56742 19.7082 7.16634 20.1093 7.16634 20.604C7.16634 21.0987 7.56742 21.4998 8.06217 21.4998H10.7497V24.1873C10.7497 24.682 11.1508 25.0832 11.6455 25.0832C12.1403 25.0832 12.5413 24.682 12.5413 24.1873V21.4998H15.2288C15.7236 21.4998 16.1247 21.0987 16.1247 20.604C16.1247 20.1093 15.7236 19.7082 15.2288 19.7082H12.5413V17.0207Z" fill="#212121"/>
</svg>
