<svg width="37" height="37" viewBox="0 0 37 37" fill="none" xmlns="http://www.w3.org/2000/svg">
<path d="M19.7645 23.5858L12.1511 24.9562L13.42 17.2414L27.9615 2.75067C28.1974 2.51281 28.4781 2.32401 28.7873 2.19517C29.0966 2.06633 29.4283 2 29.7633 2C30.0983 2 30.43 2.06633 30.7393 2.19517C31.0485 2.32401 31.3292 2.51281 31.5651 2.75067L34.2551 5.44071C34.493 5.67663 34.6818 5.95731 34.8106 6.26656C34.9395 6.57582 35.0058 6.90752 35.0058 7.24253C35.0058 7.57755 34.9395 7.90925 34.8106 8.2185C34.6818 8.52775 34.493 8.80843 34.2551 9.04435L19.7645 23.5858Z" fill="white" stroke="white" stroke-width="2.53778" stroke-linecap="round" stroke-linejoin="round"/>
<path d="M31.1844 24.8546V32.4679C31.1844 33.141 30.917 33.7865 30.4411 34.2624C29.9652 34.7383 29.3197 35.0057 28.6466 35.0057H4.53778C3.86472 35.0057 3.21922 34.7383 2.7433 34.2624C2.26737 33.7865 2 33.141 2 32.4679V8.35906C2 7.686 2.26737 7.04051 2.7433 6.56459C3.21922 6.08866 3.86472 5.82129 4.53778 5.82129H12.1511" stroke="white" stroke-width="2.53778" stroke-linecap="round" stroke-linejoin="round"/>
</svg>
