<svg width="58" height="48" viewBox="0 0 58 48" fill="none" xmlns="http://www.w3.org/2000/svg">
<path d="M45.5762 10.8406L50.0309 11.5904L54.0004 13.7369L52.1847 5.33472L45.5762 10.8406Z" fill="white"/>
<path d="M49.2645 10.1564L47.2074 16.1342L49.4456 16.9044L51.5027 10.9266L49.2645 10.1564Z" fill="white"/>
<path d="M51.1483 3.17353C51.3835 3.05592 51.4865 2.76923 51.3689 2.53399L50.3765 0.505117C50.2588 0.269885 49.9722 0.166971 49.7369 0.284587C49.5017 0.402203 49.3988 0.688892 49.5164 0.924124L50.5088 2.953C50.6264 3.18823 50.9131 3.29115 51.1483 3.17353Z" fill="#EC680F"/>
<path d="M52.9934 3.06332C53.2433 3.15153 53.5153 3.01921 53.6035 2.76927L54.3386 0.637484C54.4268 0.38755 54.2945 0.115563 54.0446 0.0273506C53.7946 -0.0608614 53.5227 0.0714566 53.4345 0.321391L52.6994 2.46053C52.6111 2.71047 52.7434 2.98245 52.9934 3.07067" fill="#E60065"/>
<path d="M54.368 4.28358C54.4856 4.51881 54.7723 4.62172 55.0076 4.50411L57.0364 3.51172C57.2717 3.3941 57.3746 3.10741 57.257 2.87218C57.1393 2.63695 56.8527 2.53404 56.6174 2.65165L54.5885 3.64404C54.3533 3.76165 54.2504 4.04834 54.368 4.28358Z" fill="white"/>
<path d="M54.4856 6.12864C54.3974 6.37858 54.5297 6.65056 54.7796 6.73878L56.9114 7.47388C57.1614 7.56209 57.4334 7.42977 57.5216 7.17983C57.6098 6.9299 57.4774 6.65791 57.2275 6.5697L55.0957 5.8346C54.8458 5.74639 54.5738 5.87871 54.4856 6.12864Z" fill="#941D80"/>
<path d="M46.8846 3.5117C46.7964 3.76163 46.9288 4.03362 47.1787 4.12183L49.3105 4.85693C49.5604 4.94514 49.8324 4.81283 49.9206 4.56289C50.0088 4.31296 49.8765 4.04097 49.6266 3.95276L47.4948 3.21766C47.2449 3.12945 46.9729 3.26176 46.8846 3.5117Z" fill="#FFDB50"/>
<path d="M23.5452 40.2667C22.619 40.2667 21.8692 41.0165 21.8692 41.9428C21.8692 42.869 22.619 43.6188 23.5452 43.6188C24.4715 43.6188 25.2213 42.869 25.2213 41.9428C25.2213 41.0165 24.4715 40.2667 23.5452 40.2667Z" fill="white"/>
<path d="M46.8479 40.2667C45.9217 40.2667 45.1719 41.0165 45.1719 41.9428C45.1719 42.869 45.9217 43.6188 46.8479 43.6188C47.7741 43.6188 48.5239 42.869 48.5239 41.9428C48.5239 41.0165 47.7741 40.2667 46.8479 40.2667Z" fill="white"/>
<path d="M41.7831 40.2667C40.8569 40.2667 40.1071 41.0165 40.1071 41.9428C40.1071 42.869 40.8569 43.6188 41.7831 43.6188C42.7093 43.6188 43.4591 42.869 43.4591 41.9428C43.4591 41.0165 42.7093 40.2667 41.7831 40.2667Z" fill="white"/>
<path d="M44.3486 44.6479C43.4224 44.6479 42.6726 45.3978 42.6726 46.324C42.6726 47.2502 43.4224 48 44.3486 48C45.2749 48 46.0247 47.2502 46.0247 46.324C46.0247 45.3978 45.2749 44.6479 44.3486 44.6479Z" fill="white"/>
<path d="M1.77895 29.0564C1.29379 29.0564 0.874785 28.88 0.521937 28.5345C0.169089 28.189 0 27.77 0 27.2775V17.0522C0 16.5671 0.16909 16.1481 0.499885 15.7952C0.83068 15.4497 1.24233 15.2733 1.73485 15.2733C2.22737 15.2733 2.63902 15.4497 2.99186 15.7952C3.33736 16.1407 3.51378 16.5597 3.51378 17.0522V27.2775C3.51378 27.7627 3.34471 28.1817 3.01392 28.5345C2.67577 28.88 2.26412 29.0564 1.77895 29.0564ZM23.6114 38.3555C23.1263 38.3555 22.7073 38.179 22.3544 37.8335C22.0016 37.488 21.8325 37.069 21.8325 36.5765V23.6534C21.8325 22.2641 21.6634 21.1982 21.3326 20.4484C20.9945 19.706 20.4505 19.1693 19.6933 18.8459C18.9362 18.5224 17.8703 18.3607 16.5104 18.3607C15.5106 18.3607 14.5035 18.4195 13.5038 18.5371C12.5041 18.6548 11.2911 18.8238 9.87975 19.0591C9.41664 19.1326 9.01234 19.0444 8.66684 18.7871C8.32134 18.5298 8.10817 18.1843 8.0273 17.7432C7.97585 17.3316 8.0861 16.9493 8.35809 16.6038C8.63007 16.2583 8.98292 16.0452 9.41663 15.9643C11.938 15.5012 14.3565 15.2733 16.6647 15.2733C18.7965 15.2733 20.4946 15.56 21.759 16.1187C23.016 16.6847 23.9349 17.5742 24.5009 18.7797C25.0669 19.9853 25.3463 21.6099 25.3463 23.6387V36.5618C25.3463 37.047 25.1772 37.466 24.8464 37.8188C24.5083 38.1643 24.0966 38.3407 23.6114 38.3407V38.3555ZM53.8534 15.2512C54.3386 15.2512 54.7503 15.4277 55.0884 15.7732C55.4192 16.1187 55.5883 16.5377 55.5883 17.0302V27.7921C55.5883 34.8637 51.5526 38.3996 43.4738 38.3996C35.3951 38.3996 31.3594 34.8637 31.3594 27.7921V17.0302C31.3594 16.545 31.5284 16.126 31.8592 15.7732C32.19 15.4277 32.6017 15.2512 33.0942 15.2512C33.5867 15.2512 33.9984 15.4277 34.3512 15.7732C34.6967 16.1187 34.8732 16.5377 34.8732 17.0302V27.7921C34.8732 30.387 35.5862 32.2909 37.0123 33.5038C38.4384 34.7094 40.5922 35.3195 43.4738 35.3195C46.3554 35.3195 48.5093 34.7167 49.9354 33.5038C51.3615 32.2982 52.0745 30.3943 52.0745 27.7921V17.0302C52.0745 16.545 52.2509 16.126 52.5964 15.7732C52.9419 15.4277 53.3609 15.2512 53.8534 15.2512ZM43.4738 31.0265C42.9887 31.0265 42.5697 30.8501 42.2168 30.5046C41.8713 30.1591 41.6949 29.7401 41.6949 29.2476L41.7317 17.0228C41.7317 16.5377 41.9007 16.1187 42.2315 15.7658C42.5623 15.4203 42.974 15.2439 43.4665 15.2439C43.959 15.2439 44.3707 15.4203 44.7235 15.7658C45.069 16.1113 45.2454 16.5303 45.2454 17.0228L45.2087 29.2476C45.2087 29.7327 45.0396 30.1517 44.7088 30.5046C44.3707 30.8501 43.959 31.0265 43.4738 31.0265Z" fill="white"/>
</svg>
