<svg width="91" height="96" viewBox="0 0 91 96" fill="none" xmlns="http://www.w3.org/2000/svg">
<rect x="5.43262" y="54.7299" width="80.1343" height="20.3731" rx="6.79105" fill="#256EF6"/>
<path d="M33.8617 65.2648H26.3169C18.9326 65.2648 12.1904 67.8332 6.89295 72.007C5.60873 73.1307 4.3245 74.2544 3.04028 75.5386C-3.86244 83.2439 1.75605 95.6046 12.1904 95.6046H18.2905H26.959H64.041H72.7095H78.8096C89.2439 95.6046 94.8624 83.2439 87.9597 75.5386C86.836 74.2544 85.5518 73.1307 84.107 72.007C78.8096 67.8332 72.0674 65.2648 64.6831 65.2648H57.1383" fill="#DDEAF7"/>
<path d="M24.5856 33.1666C25.1089 35.5506 26.2647 37.627 27.5494 38.6654C30.3166 45.3323 33.5437 50.3698 37.5021 53.244C35.6884 57.7504 32.4913 62.2571 28.6453 63.0062C21.0158 64.33 12.6373 67.1166 9.15295 69.9457C7.63268 71.0986 7.03989 72.0287 6.81328 73.9802C6.56522 76.1162 8.42614 77.8706 10.5827 77.8706H80.8706C83.0272 77.8706 84.8879 76.1162 84.6395 73.9802C84.4122 72.0287 83.8196 71.0986 82.3046 69.9457C78.816 67.1166 70.4375 64.33 62.8081 63.0062C58.9597 62.2571 55.7655 57.7527 53.9522 53.2471C57.9128 50.3737 61.142 45.335 63.9076 38.6654C65.1925 37.627 66.3524 35.5506 66.8753 33.1666C67.6252 29.7527 66.7468 26.9702 64.9192 26.9785C64.9122 26.9736 64.9028 26.9744 64.8569 26.9785C64.8242 26.9813 64.7736 26.9857 64.6926 26.9909C64.7397 26.9785 64.603 26.9992 64.4621 27.0283C65.0909 22.5595 65.5048 18.2652 64.7436 14.0747C64.6264 13.3189 64.4231 12.5173 64.1342 11.7033C62.6738 6.35829 56.3674 -0.00012207 45.7307 -0.00012207C35.0819 -0.00012207 28.7794 6.35829 27.3229 11.7033C27.0261 12.5173 26.8231 13.3189 26.7137 14.0747C25.9484 18.2652 26.3662 22.5595 26.9871 27.0283C26.8945 27.0053 26.7971 26.9953 26.7661 26.9921C26.7578 26.9913 26.7567 26.9909 26.7567 26.9909C26.7049 26.9869 26.6666 26.9833 26.6374 26.9806C26.5764 26.9748 26.5553 26.9729 26.5341 26.9785C24.7105 26.9702 23.8359 29.7527 24.5856 33.1666Z" fill="url(#paint0_linear_609_10812)"/>
<rect x="16.2983" y="61.1194" width="12.2239" height="33.9552" fill="#256EF6"/>
<rect x="62.4775" y="61.1194" width="12.2239" height="33.9552" fill="#256EF6"/>
<defs>
<linearGradient id="paint0_linear_609_10812" x1="45.7264" y1="-0.00012207" x2="45.7264" y2="77.8706" gradientUnits="userSpaceOnUse">
<stop stop-color="#ABC7E3"/>
<stop offset="1" stop-color="#DDEAF7"/>
</linearGradient>
</defs>
</svg>
