<svg width="20" height="19" viewBox="0 0 20 19" fill="none" xmlns="http://www.w3.org/2000/svg">
<path d="M17.375 11.125V13.75H20V15.5H17.375V18.125H15.625V15.5H13V13.75H15.625V11.125H17.375ZM17.382 0.625C17.8615 0.625 18.25 1.01438 18.25 1.49388V9.67425C17.6879 9.47571 17.0961 9.37451 16.5 9.375V2.375H2.5L2.50087 14.625L10.6314 6.49362C10.7818 6.34267 10.9823 6.25189 11.195 6.23835C11.4077 6.22482 11.618 6.28946 11.7864 6.42013L11.8678 6.4945L14.9705 9.60075C14.2921 9.80748 13.6625 10.1495 13.1198 10.6061C12.5771 11.0627 12.1325 11.6245 11.8128 12.2576C11.4931 12.8907 11.305 13.582 11.2597 14.2898C11.2144 14.9976 11.3129 15.7072 11.5492 16.3759L1.618 16.375C1.38771 16.3748 1.16693 16.2831 1.00418 16.1202C0.841422 15.9573 0.75 15.7364 0.75 15.5061V1.49388C0.751601 1.26408 0.843538 1.04414 1.00595 0.881565C1.16836 0.718991 1.38821 0.626833 1.618 0.625H17.382ZM6 4.125C6.46413 4.125 6.90925 4.30937 7.23744 4.63756C7.56563 4.96575 7.75 5.41087 7.75 5.875C7.75 6.33913 7.56563 6.78425 7.23744 7.11244C6.90925 7.44063 6.46413 7.625 6 7.625C5.53587 7.625 5.09075 7.44063 4.76256 7.11244C4.43437 6.78425 4.25 6.33913 4.25 5.875C4.25 5.41087 4.43437 4.96575 4.76256 4.63756C5.09075 4.30937 5.53587 4.125 6 4.125Z" fill="#1C2A3A"/>
</svg>
