<svg width="16" height="16" viewBox="0 0 16 16" fill="none" xmlns="http://www.w3.org/2000/svg">
<path d="M14.902 1.20122C14.5945 0.89382 14.0961 0.893813 13.7887 1.20121L1.19997 13.7895C0.892544 14.0969 0.892628 14.5954 1.20016 14.9027C1.50752 15.2098 2.00565 15.2098 2.31292 14.9025L14.9019 2.31447C15.2094 2.00706 15.2094 1.50864 14.902 1.20122Z" fill="#31B0F2" stroke="#31B0F2" stroke-width="0.551355"/>
<path d="M2.31339 1.20144C2.00584 0.893911 1.50719 0.894008 1.19976 1.20166C0.892459 1.50917 0.892557 2.00755 1.19997 2.31494L13.788 14.902C14.0956 15.2095 14.5942 15.2094 14.9016 14.9018C15.2089 14.5943 15.2088 14.0959 14.9014 13.7885L2.31339 1.20144Z" fill="#31B0F2" stroke="#31B0F2" stroke-width="0.551355"/>
</svg>
