<svg width="59" height="58" viewBox="0 0 59 58" fill="none" xmlns="http://www.w3.org/2000/svg">
<path d="M13.8349 24.4194C14.2202 26.1747 15.0712 27.7035 16.017 28.468C18.0544 33.3766 20.4304 37.0855 23.3449 39.2017C22.0095 42.5196 19.6556 45.8378 16.8239 46.3893C11.2066 47.364 5.03781 49.4156 2.4724 51.4986C1.35308 52.3474 0.916632 53.0322 0.749792 54.469C0.567157 56.0417 1.93728 57.3334 3.5251 57.3334H55.2755C56.8633 57.3334 58.2333 56.0417 58.0504 54.469C57.883 53.0322 57.4467 52.3474 56.3313 51.4986C53.7628 49.4156 47.594 47.364 41.9767 46.3893C39.1433 45.8378 36.7915 42.5213 35.4565 39.204C38.3725 37.0884 40.7501 33.3786 42.7863 28.468C43.7323 27.7035 44.5863 26.1747 44.9713 24.4194C45.5234 21.9059 44.8767 19.8572 43.531 19.8634C43.5259 19.8598 43.519 19.8604 43.4852 19.8634C43.4611 19.8654 43.4238 19.8687 43.3642 19.8725C43.3989 19.8634 43.2983 19.8786 43.1945 19.9C43.6575 16.6099 43.9622 13.4481 43.4018 10.3628C43.3155 9.8063 43.1658 9.21614 42.9531 8.61683C41.8778 4.68147 37.2347 0 29.4032 0C21.563 0 16.9227 4.68147 15.8503 8.61683C15.6318 9.21614 15.4823 9.8063 15.4018 10.3628C14.8383 13.4481 15.1459 16.6099 15.603 19.9C15.5349 19.8831 15.4631 19.8758 15.4403 19.8734C15.4342 19.8728 15.4334 19.8725 15.4334 19.8725C15.3953 19.8695 15.3671 19.8669 15.3456 19.8649C15.3007 19.8607 15.2851 19.8592 15.2695 19.8634C13.9269 19.8572 13.2829 21.9059 13.8349 24.4194Z" fill="#256EF6"/>
</svg>
