<svg width="61" height="60" viewBox="0 0 61 60" fill="none" xmlns="http://www.w3.org/2000/svg">
<path d="M31.0106 39.5457V52.0637C31.0106 52.9173 30.7261 53.7708 30.4416 54.6243H35.5627C36.1317 54.6243 36.7007 54.3398 37.2697 53.7708C37.5542 53.4863 37.8387 52.6328 37.8387 52.0637V27.3121C37.8387 26.7431 37.5542 26.1741 37.2697 25.6051C36.7007 25.0361 36.1317 24.7516 35.5627 24.7516H19.9151C19.3461 24.7516 18.7771 25.0361 18.2081 25.6051C17.6391 26.1741 17.3546 26.7431 17.3546 27.3121V31.8642H23.0446C25.3206 31.8642 27.3121 32.7177 28.7346 33.8557C29.8726 35.2782 31.0106 37.2697 31.0106 39.5457ZM43.2442 31.8642H52.6328C54.9088 31.8642 56.6158 32.7177 58.0383 33.8557C59.4608 35.2782 60.3143 37.2697 60.3143 39.5457V52.0637C60.3143 54.0553 59.4608 56.0468 58.0383 57.4693C56.6158 58.8918 54.9088 59.7453 52.6328 59.7453H35.5627H26.4586H19.9151H7.68154C5.69003 59.7453 3.69852 58.8918 2.27601 57.4693C0.853504 56.0468 0 54.0553 0 52.0637V39.5457C0 37.2697 0.853504 35.2782 2.27601 33.8557C3.69852 32.7177 5.69003 31.8642 7.68154 31.8642H12.2336V27.3121C12.2336 25.3206 13.0871 23.3291 14.5096 21.9066C15.9321 20.4841 17.9236 19.6306 19.9151 19.6306H25.6051V3.12951C25.6051 2.56051 25.8896 1.99151 26.1741 1.42251C26.4586 1.13801 26.7431 0.569003 27.3121 0.284501C27.5966 0 28.1656 0 28.7346 0C29.3036 0 29.8726 0 30.1571 0.284501L42.6752 7.68154C43.2442 7.96604 43.5287 8.25054 43.8132 8.81954C44.0977 9.10404 44.0977 9.67305 44.0977 10.242C44.0977 10.8111 44.0977 11.3801 43.8132 11.6646C43.5287 12.2336 42.9597 12.8026 42.3907 13.0871L29.8726 17.0701V19.6306H35.5627C37.5542 19.6306 39.5457 20.4841 40.9682 21.9066C42.3907 23.3291 43.2442 25.3206 43.2442 27.3121V31.8642ZM42.6752 54.6243H52.6328C53.4863 54.6243 54.0553 54.3398 54.3398 53.7708C54.9088 53.4863 55.1933 52.6328 55.1933 52.0637V39.5457C55.1933 38.6922 54.9088 38.1232 54.3398 37.5542C54.0553 37.2697 53.4863 36.9852 52.6328 36.9852H43.2442V52.0637C43.2442 52.9173 42.9597 53.7708 42.6752 54.6243ZM29.8726 12.8026L38.4077 9.95755L29.8726 4.83652V12.8026ZM12.8026 54.6243C12.5181 53.7708 12.2336 52.9173 12.2336 52.0637V46.0892H17.3546V52.0637C17.3546 52.6328 17.6391 53.4863 18.2081 53.7708C18.7771 54.3398 19.3461 54.6243 19.9151 54.6243H23.0446C23.8981 54.6243 24.4671 54.3398 25.0361 53.7708C25.3206 53.4863 25.6051 52.6328 25.6051 52.0637V39.5457C25.6051 38.6922 25.3206 38.1232 25.0361 37.5542C24.4671 37.2697 23.8981 36.9852 23.0446 36.9852H7.68154C7.11253 36.9852 6.25903 37.2697 5.97453 37.5542C5.40553 38.1232 5.12102 38.6922 5.12102 39.5457V52.0637C5.12102 52.6328 5.40553 53.4863 5.97453 53.7708C6.25903 54.3398 7.11253 54.6243 7.68154 54.6243H12.8026Z" fill="white"/>
</svg>
