<svg width="89" height="83" viewBox="0 0 89 83" fill="none" xmlns="http://www.w3.org/2000/svg">
<path d="M89 59.2667H0V14.7667C0 13.9799 0.312559 13.2253 0.868916 12.669C1.42527 12.1126 2.17986 11.8 2.96667 11.8H86.0333C86.8201 11.8 87.5747 12.1126 88.1311 12.669C88.6874 13.2253 89 13.9799 89 14.7667V59.2667Z" fill="#ACC8E4"/>
<path d="M54.8834 77.0666L51.9167 68.1666H37.0834L34.1167 77.0666H54.8834Z" fill="#DDEAF7"/>
<path d="M89 59.2667V65.2001C89 65.9869 88.6874 66.7415 88.1311 67.2978C87.5747 67.8542 86.8201 68.1667 86.0333 68.1667H2.96667C2.17986 68.1667 1.42527 67.8542 0.868916 67.2978C0.312559 66.7415 0 65.9869 0 65.2001V59.2667H89Z" fill="#ACC8E4"/>
<path d="M29.6666 77.0667H59.3333C60.1201 77.0667 60.8747 77.3792 61.431 77.9356C61.9874 78.4919 62.2999 79.2465 62.2999 80.0333V83H26.7V80.0333C26.7 79.2465 27.0125 78.4919 27.5689 77.9356C28.1252 77.3792 28.8798 77.0667 29.6666 77.0667Z" fill="#DDEAF7"/>
<path d="M80.1 11.8667V53.4C80.1 54.1868 79.7875 54.9414 79.2311 55.4978C78.6747 56.0541 77.9202 56.3667 77.1334 56.3667H11.8667C11.0799 56.3667 10.3253 56.0541 9.76894 55.4978C9.21258 54.9414 8.90002 54.1868 8.90002 53.4V11.8667H80.1Z" fill="#DDEAF7"/>
<path d="M44.5 43.0167C51.0538 43.0167 56.3667 37.7038 56.3667 31.15C56.3667 24.5962 51.0538 19.2833 44.5 19.2833C37.9462 19.2833 32.6334 24.5962 32.6334 31.15C32.6334 37.7038 37.9462 43.0167 44.5 43.0167Z" fill="#256EF6"/>
<path d="M8.90002 11.8667V2.96667C8.90002 2.17986 9.21258 1.42527 9.76894 0.868916C10.3253 0.312559 11.0799 0 11.8667 0H77.1334C77.9202 0 78.6747 0.312559 79.2311 0.868916C79.7875 1.42527 80.1 2.17986 80.1 2.96667V11.8667H8.90002Z" fill="white"/>
<path d="M16.3166 4.45H13.35V7.41666H16.3166V4.45Z" fill="#256EF6"/>
<path d="M22.25 4.45H19.2833V7.41666H22.25V4.45Z" fill="#256EF6"/>
<path d="M28.1833 4.45H25.2167V7.41666H28.1833V4.45Z" fill="#256EF6"/>
<path d="M69.7167 4.45H66.75V7.41666H69.7167V4.45Z" fill="#256EF6"/>
<path d="M75.65 4.45H72.6833V7.41666H75.65V4.45Z" fill="#256EF6"/>
<path d="M40.05 25.2167V37.0833L51.9167 31.15L40.05 25.2167Z" fill="#DDEAF7"/>
</svg>
