<svg width="55" height="70" viewBox="0 0 55 70" fill="none" xmlns="http://www.w3.org/2000/svg">
<path d="M26.2666 37.7143H52.2857C53.786 37.7143 55 36.5003 55 35C55 33.4997 53.786 32.2857 52.2857 32.2857H26.2666L32.4904 26.0619C33.551 25.0012 33.551 23.2838 32.4904 22.2239C31.4298 21.1639 29.7124 21.1632 28.6524 22.2239L17.7953 33.081C16.7347 34.1416 16.7347 35.8591 17.7953 36.919L28.6524 47.7761C29.1824 48.3061 29.8773 48.5714 30.5714 48.5714C31.2656 48.5714 31.9605 48.3061 32.4904 47.7761C33.551 46.7155 33.551 44.9981 32.4904 43.9381L26.2666 37.7143ZM8.85714 0H36C37.5003 0 38.7143 1.21396 38.7143 2.71429C38.7143 4.21461 37.5003 5.42857 36 5.42857H8.85714C7.35954 5.42857 6.14286 6.64525 6.14286 8.14286V61.8571C6.14286 63.3547 7.35954 64.5714 8.85714 64.5714H36C37.5003 64.5714 38.7143 65.7854 38.7143 67.2857C38.7143 68.786 37.5003 70 36 70H8.85714C4.36703 70 0.714287 66.3472 0.714287 61.8571V8.14286C0.714287 3.65275 4.36703 0 8.85714 0Z" fill="white"/>
</svg>
