<svg width="91" height="96" viewBox="0 0 91 96" fill="none" xmlns="http://www.w3.org/2000/svg">
<rect x="5.43262" y="54.7297" width="80.1343" height="20.3731" rx="6.79105" fill="#B1CBE6"/>
<path d="M33.8617 65.2646H26.3169C18.9326 65.2646 12.1904 67.8331 6.89295 72.0068C5.60873 73.1305 4.3245 74.2542 3.04028 75.5385C-3.86244 83.2438 1.75605 95.6045 12.1904 95.6045H18.2905H26.959H64.041H72.7095H78.8096C89.2439 95.6045 94.8624 83.2438 87.9597 75.5385C86.836 74.2542 85.5518 73.1305 84.107 72.0068C78.8096 67.8331 72.0674 65.2646 64.6831 65.2646H57.1383" fill="white"/>
<path d="M24.5856 33.1667C25.1089 35.5507 26.2647 37.6271 27.5494 38.6655C30.3166 45.3324 33.5437 50.3699 37.5021 53.2441C35.6884 57.7505 32.4913 62.2572 28.6453 63.0064C21.0158 64.3302 12.6373 67.1168 9.15295 69.9458C7.63268 71.0987 7.03989 72.0288 6.81328 73.9803C6.56522 76.1163 8.42614 77.8707 10.5827 77.8707H80.8706C83.0272 77.8707 84.8879 76.1163 84.6395 73.9803C84.4122 72.0288 83.8196 71.0987 82.3046 69.9458C78.816 67.1168 70.4375 64.3302 62.8081 63.0064C58.9597 62.2572 55.7655 57.7528 53.9522 53.2472C57.9128 50.3738 61.142 45.3352 63.9076 38.6655C65.1925 37.6271 66.3524 35.5507 66.8753 33.1667C67.6252 29.7528 66.7468 26.9703 64.9192 26.9786C64.9122 26.9737 64.9028 26.9745 64.8569 26.9786C64.8242 26.9814 64.7736 26.9859 64.6926 26.991C64.7397 26.9786 64.603 26.9993 64.4621 27.0284C65.0909 22.5597 65.5048 18.2654 64.7436 14.0749C64.6264 13.319 64.4231 12.5174 64.1342 11.7035C62.6738 6.35842 56.3674 0 45.7307 0C35.0819 0 28.7794 6.35842 27.3229 11.7035C27.0261 12.5174 26.8231 13.319 26.7137 14.0749C25.9484 18.2654 26.3662 22.5597 26.9871 27.0284C26.8945 27.0054 26.7971 26.9954 26.7661 26.9922C26.7578 26.9914 26.7567 26.991 26.7567 26.991C26.7049 26.987 26.6666 26.9834 26.6374 26.9807C26.5764 26.975 26.5553 26.973 26.5341 26.9786C24.7105 26.9703 23.8359 29.7528 24.5856 33.1667Z" fill="white"/>
<rect x="16.2983" y="61.1194" width="12.2239" height="33.9552" fill="#B1CBE6"/>
<rect x="62.4775" y="61.1194" width="12.2239" height="33.9552" fill="#B1CBE6"/>
</svg>
