<svg width="109" height="80" viewBox="0 0 109 80" fill="none" xmlns="http://www.w3.org/2000/svg">
<path fill-rule="evenodd" clip-rule="evenodd" d="M37.6471 37.647L18.8235 56.4705L0 37.647H37.6471ZM108.235 37.647L89.4118 18.8235L70.5882 37.647H108.235Z" fill="#DDEAF7"/>
<path d="M94.1177 40V35.2941H84.7059V40H94.1177ZM84.7059 40C84.7059 44.0169 83.9147 47.9945 82.3775 51.7056C80.8403 55.4168 78.5872 58.7888 75.7468 61.6292C72.9064 64.4696 69.5344 66.7227 65.8233 68.2599C62.1122 69.7971 58.1346 70.5883 54.1177 70.5883V80C59.3706 80 64.572 78.9654 69.425 76.9552C74.278 74.945 78.6876 71.9986 82.402 68.2843C86.1163 64.57 89.0627 60.1604 91.0729 55.3074C93.083 50.4543 94.1177 45.2529 94.1177 40H84.7059ZM23.5294 40C23.5294 31.8875 26.7521 24.1073 32.4885 18.3709C38.2249 12.6345 46.0052 9.41179 54.1177 9.41179V2.97592e-05C43.509 2.97592e-05 33.3349 4.2143 25.8334 11.7158C18.332 19.2172 14.1177 29.3914 14.1177 40H23.5294ZM54.1177 9.41179C62.1506 9.41179 69.4494 12.5036 74.913 17.5671L81.313 10.6683C73.9239 3.79989 64.2059 -0.0122883 54.1177 2.97592e-05V9.41179ZM54.1177 70.5883C46.4033 70.6011 38.9714 67.6866 33.3224 62.433L26.9224 69.3318C34.3115 76.2002 44.0294 80.0123 54.1177 80V70.5883Z" fill="#DDEAF7"/>
<path d="M50.1729 49C49.9729 49 49.8029 48.93 49.6629 48.79C49.5229 48.65 49.4529 48.47 49.4529 48.25V38.17C49.4529 37.95 49.5229 37.77 49.6629 37.63C49.8029 37.49 49.9729 37.42 50.1729 37.42H53.0229C53.2429 37.42 53.4229 37.49 53.5629 37.63C53.7029 37.77 53.7729 37.95 53.7729 38.17V45.46H59.0229C60.3829 45.46 61.3729 45.12 61.9929 44.44C62.6329 43.74 62.9529 42.76 62.9529 41.5V32.59C62.9529 32.39 63.0229 32.22 63.1629 32.08C63.3029 31.94 63.4829 31.87 63.7029 31.87H66.5529C66.7529 31.87 66.9229 31.94 67.0629 32.08C67.2029 32.22 67.2729 32.4 67.2729 32.62V41.53C67.2729 43.29 66.9729 44.72 66.3729 45.82C65.7729 46.92 64.8729 47.73 63.6729 48.25C62.4729 48.75 60.9729 49 59.1729 49H50.1729ZM43.6029 49C43.4029 49 43.2329 48.93 43.0929 48.79C42.9529 48.65 42.8829 48.47 42.8829 48.25V32.62C42.8829 32.4 42.9529 32.22 43.0929 32.08C43.2329 31.94 43.4029 31.87 43.6029 31.87H52.6029C54.4029 31.87 55.9029 32.13 57.1029 32.65C58.3029 33.15 59.2029 33.95 59.8029 35.05C60.4029 36.15 60.7029 37.58 60.7029 39.34V42.7C60.7029 42.9 60.6329 43.07 60.4929 43.21C60.3529 43.35 60.1829 43.42 59.9829 43.42H57.1329C56.9129 43.42 56.7329 43.36 56.5929 43.24C56.4529 43.1 56.3829 42.92 56.3829 42.7V39.37C56.3829 38.09 56.0629 37.11 55.4229 36.43C54.8029 35.75 53.8129 35.41 52.4529 35.41H47.2029V48.25C47.2029 48.47 47.1329 48.65 46.9929 48.79C46.8529 48.93 46.6729 49 46.4529 49H43.6029Z" fill="white"/>
</svg>
